<?xml version="1.0" encoding="utf-8"?>
<!-- Generator: Adobe Illustrator 16.0.3, SVG Export Plug-In . SVG Version: 6.00 Build 0)  -->
<!DOCTYPE svg PUBLIC "-//W3C//DTD SVG 1.1//EN" "http://www.w3.org/Graphics/SVG/1.1/DTD/svg11.dtd">
<svg version="1.1" id="Capa_1" xmlns="http://www.w3.org/2000/svg" xmlns:xlink="http://www.w3.org/1999/xlink" x="0px" y="0px"
	 width="200px" height="200px" viewBox="0 0 200 200" enable-background="new 0 0 200 200" xml:space="preserve">
<g display="none">
	<g display="inline">
		<path fill-rule="evenodd" clip-rule="evenodd" fill="none" d="M0.217,33.5c0-10.885,0.006-21.771-0.017-32.656
			C0.198,0.238,0.318,0.12,0.923,0.121c66.254,0.018,132.509,0.018,198.764,0c0.604,0,0.723,0.118,0.723,0.723
			c-0.018,66.196-0.018,132.391,0,198.587c0,0.604-0.118,0.723-0.723,0.723c-66.255-0.018-132.509-0.019-198.764,0.008
			c-0.76,0.001-0.712-0.301-0.712-0.819C0.217,144.355,0.217,89.369,0.217,34.382c0.059,0,0.117,0,0.176,0
			c0.059,0.681,0.115,1.361,0.177,2.042c0.111,1.214,0.205,2.431,0.344,3.642c0.222,1.932,0.475,3.861,0.715,5.791
			c0.163,0.276-0.382,0.835,0.353,0.883c0.176,1.458,0.357,2.916,0.527,4.374c0.24,2.051,0.472,4.104,0.708,6.155
			c0.294,2.558,0.577,5.116,0.886,7.672c0.247,2.037,0.328,4.083,0.831,6.103c0.407,1.636,0.406,3.375,0.577,5.068
			c0.122,1.216,0.206,2.436,0.349,3.65c0.218,1.848,0.488,3.691,0.707,5.539c0.143,1.213,0.209,2.436,0.352,3.649
			c0.219,1.878,0.474,3.751,0.713,5.627c0.163,0.276-0.382,0.835,0.353,0.883c-0.001,0.353-0.042,0.71,0.001,1.058
			c0.223,1.76,0.494,3.513,0.697,5.274c0.208,1.808,0.326,3.625,0.541,5.431c0.262,2.209,0.593,4.409,0.875,6.615
			c0.261,2.035,0.326,4.082,0.837,6.103c0.413,1.634,0.407,3.374,0.577,5.068c0.123,1.216,0.206,2.436,0.349,3.649
			c0.218,1.849,0.489,3.69,0.707,5.539c0.143,1.214,0.21,2.437,0.352,3.649c0.22,1.878,0.474,3.752,0.713,5.627
			c0.178,0.333-0.385,0.913,0.353,1.06c0.239,1.935,0.492,3.868,0.713,5.805c0.193,1.691,0.333,3.389,0.538,5.078
			c0.033,0.275,0.212,0.646,0.436,0.767c2.213,1.201,4.446,2.365,6.68,3.527c2.498,1.301,5.007,2.579,7.502,3.885
			c2.571,1.345,5.127,2.718,7.697,4.065c2.447,1.283,4.905,2.546,7.354,3.823c2.232,1.165,4.458,2.34,6.688,3.507
			c1.842,0.964,3.689,1.918,5.529,2.886c1.454,0.765,2.893,1.561,4.353,2.314c2.524,1.304,5.072,2.563,7.587,3.882
			c2.621,1.375,5.207,2.816,7.826,4.194c2.394,1.26,4.818,2.464,7.219,3.711c1.58,0.82,3.139,1.68,4.712,2.512
			c1.427,0.755,2.858,1.501,4.291,2.242c1.749,0.904,3.501,1.801,5.251,2.7c0.417-0.116,0.869-0.163,1.243-0.359
			c1.506-0.789,2.977-1.647,4.485-2.435c1.426-0.744,2.893-1.41,4.322-2.148c1.437-0.741,2.842-1.545,4.275-2.293
			c2.593-1.354,5.199-2.683,7.795-4.032c1.627-0.846,3.236-1.724,4.866-2.563c1.358-0.7,2.743-1.348,4.1-2.051
			c1.557-0.806,3.089-1.659,4.643-2.471c2.496-1.303,5.007-2.58,7.502-3.885c1.602-0.839,3.185-1.714,4.783-2.561
			c1.474-0.781,2.961-1.54,4.436-2.32c1.816-0.961,3.612-1.961,5.442-2.895c2.26-1.153,4.557-2.233,6.815-3.389
			c1.393-0.712,2.729-1.532,4.117-2.254c1.523-0.793,3.089-1.507,4.615-2.293c1.583-0.816,3.139-1.685,4.713-2.519
			c1.862-0.987,3.735-1.952,5.592-2.949c0.436-0.233,0.95-0.326,1.018-1.062c0.13-1.418,0.448-2.816,0.663-4.228
			c0.31-2.026,0.623-4.053,0.886-6.086c0.215-1.659,0.33-3.331,0.541-4.99c0.266-2.091,0.587-4.175,0.878-6.263
			c0.237-1.701,0.461-3.404,0.699-5.105c0.292-2.088,0.617-4.172,0.884-6.263c0.211-1.659,0.324-3.331,0.538-4.99
			c0.263-2.033,0.591-4.058,0.879-6.087c0.241-1.7,0.466-3.403,0.695-5.105c0.064-0.475,0.116-0.952,0.182-1.427
			c0.236-1.729,0.488-3.457,0.71-5.188c0.141-1.095,0.219-2.198,0.359-3.293c0.22-1.703,0.465-3.402,0.705-5.102
			c0.169-1.197,0.347-2.393,0.521-3.589c0.179-1.223,0.371-2.444,0.534-3.669c0.142-1.064,0.236-2.134,0.378-3.198
			c0.216-1.617,0.472-3.228,0.679-4.846c0.144-1.125,0.205-2.261,0.354-3.385c0.276-2.09,0.591-4.175,0.888-6.263
			c0.241-1.698,0.482-3.397,0.718-5.096c0.063-0.448,0.096-0.901,0.155-1.35c0.235-1.758,0.488-3.515,0.712-5.275
			c0.136-1.067,0.211-2.143,0.35-3.209c0.222-1.702,0.472-3.4,0.715-5.099c0.162-1.141,0.321-2.282,0.502-3.419
			c0.172-1.076,0.395-2.144,0.551-3.222c0.258-1.785,0.505-3.572,0.702-5.364c0.053-0.473,0.201-1.023-0.605-1.236
			c-2.249-0.594-4.482-1.253-6.701-1.953c-3.232-1.02-6.447-2.095-9.669-3.149c-2.885-0.943-5.765-1.898-8.653-2.829
			c-2.863-0.923-5.734-1.819-8.601-2.732c-4.064-1.295-8.133-2.578-12.189-3.897c-3.977-1.293-7.933-2.65-11.912-3.933
			c-3.124-1.007-6.277-1.921-9.404-2.918c-4.116-1.313-8.215-2.68-12.329-3.998c-3.359-1.077-6.737-2.094-10.094-3.179
			c-3.381-1.092-6.743-2.24-10.12-3.343c-0.26-0.085-0.572-0.009-0.86-0.008c-3.136,1.045-6.273,2.089-9.409,3.136
			c-3.005,1.003-6.009,2.013-9.016,3.012c-3.24,1.076-6.488,2.127-9.723,3.218c-3.778,1.275-7.543,2.59-11.32,3.87
			c-2.483,0.841-4.975,1.654-7.466,2.472c-3.452,1.133-6.915,2.235-10.359,3.394c-3.183,1.072-6.341,2.219-9.521,3.299
			c-2.975,1.01-5.966,1.972-8.947,2.962c-3.265,1.085-6.532,2.166-9.79,3.273c-2.508,0.853-4.998,1.757-7.505,2.61
			c-1.629,0.555-3.276,1.06-4.915,1.587C0.334,33.5,0.275,33.5,0.217,33.5z"/>
		<path fill-rule="evenodd" clip-rule="evenodd" fill="#F7C2C3" d="M0.393,34.382c-0.059,0-0.118,0-0.176,0c0-0.294,0-0.588,0-0.883
			c0.059,0,0.117,0,0.176,0C0.393,33.794,0.393,34.088,0.393,34.382z"/>
		<path fill-rule="evenodd" clip-rule="evenodd" fill="#B53032" d="M98.363,0.667c0.288-0.001,0.6-0.077,0.86,0.008
			c3.377,1.103,6.739,2.251,10.12,3.343c3.356,1.084,6.734,2.102,10.094,3.179c4.114,1.318,8.213,2.686,12.329,3.998
			c3.127,0.997,6.28,1.911,9.404,2.918c3.979,1.283,7.936,2.639,11.912,3.933c4.057,1.319,8.125,2.603,12.189,3.897
			c2.866,0.913,5.737,1.809,8.601,2.732c2.889,0.931,5.769,1.886,8.653,2.829c3.222,1.054,6.437,2.129,9.669,3.149
			c2.219,0.699,4.452,1.359,6.701,1.953c0.807,0.213,0.658,0.763,0.605,1.236c-0.197,1.792-0.444,3.579-0.702,5.364
			c-0.156,1.078-0.379,2.146-0.551,3.222c-0.181,1.137-0.34,2.278-0.502,3.419c-0.243,1.699-0.493,3.397-0.715,5.099
			c-0.139,1.066-0.214,2.142-0.35,3.209c-0.224,1.76-0.477,3.517-0.712,5.275c-0.06,0.449-0.093,0.901-0.155,1.35
			c-0.235,1.699-0.477,3.398-0.718,5.096c-0.297,2.088-0.611,4.173-0.888,6.263c-0.148,1.125-0.21,2.26-0.354,3.385
			c-0.207,1.618-0.463,3.229-0.679,4.846c-0.142,1.064-0.236,2.134-0.378,3.198c-0.163,1.225-0.355,2.446-0.534,3.669
			c-0.174,1.196-0.352,2.392-0.521,3.589c-0.24,1.7-0.485,3.399-0.705,5.102c-0.141,1.095-0.219,2.198-0.359,3.293
			c-0.222,1.731-0.474,3.459-0.71,5.188c-0.065,0.475-0.117,0.952-0.182,1.427c-0.229,1.702-0.454,3.405-0.695,5.105
			c-0.288,2.029-0.616,4.054-0.879,6.087c-0.214,1.659-0.327,3.331-0.538,4.99c-0.267,2.091-0.592,4.175-0.884,6.263
			c-0.238,1.701-0.462,3.404-0.699,5.105c-0.291,2.088-0.612,4.172-0.878,6.263c-0.211,1.659-0.326,3.331-0.541,4.99
			c-0.263,2.033-0.576,4.06-0.886,6.086c-0.215,1.411-0.533,2.81-0.663,4.228c-0.067,0.735-0.582,0.828-1.018,1.062
			c-1.856,0.997-3.729,1.962-5.592,2.949c-1.574,0.834-3.13,1.702-4.713,2.519c-1.526,0.786-3.092,1.5-4.615,2.293
			c-1.388,0.722-2.725,1.542-4.117,2.254c-2.259,1.155-4.556,2.235-6.815,3.389c-1.83,0.934-3.626,1.934-5.442,2.895
			c-1.475,0.78-2.962,1.539-4.436,2.32c-1.599,0.847-3.182,1.722-4.783,2.561c-2.495,1.305-5.006,2.582-7.502,3.885
			c-1.554,0.812-3.086,1.665-4.643,2.471c-1.356,0.703-2.741,1.351-4.1,2.051c-1.63,0.84-3.239,1.718-4.866,2.563
			c-2.596,1.35-5.202,2.678-7.795,4.032c-1.434,0.748-2.839,1.552-4.275,2.293c-1.43,0.738-2.896,1.404-4.322,2.148
			c-1.508,0.787-2.979,1.646-4.485,2.435c-0.375,0.196-0.827,0.243-1.243,0.359c0-25.537,0-51.074,0-76.611
			c9.473,0,18.946-0.003,28.418,0.018c0.295,0.001,0.726,0.182,0.859,0.414c0.636,1.096,1.227,2.221,1.765,3.368
			c0.999,2.128,1.941,4.282,2.923,6.418c1.017,2.214,2.059,4.416,3.075,6.63c0.98,2.136,1.954,4.276,2.91,6.424
			c0.821,1.844,1.603,3.705,2.437,5.544c0.097,0.213,0.403,0.451,0.628,0.467c1.385,0.1,2.774,0.163,4.163,0.192
			c3.477,0.074,6.954,0.137,10.431,0.177c2.318,0.026,4.637,0.005,7.036,0.005c-0.38-0.7-0.753-1.347-1.09-2.012
			c-1.016-2.005-2.018-4.017-3.024-6.025c-0.994-1.983-1.988-3.966-2.979-5.951c-1.003-2.009-1.997-4.021-3.003-6.028
			c-0.995-1.984-2.007-3.962-3.001-5.946c-1.006-2.008-2.007-4.018-2.998-6.032c-1.184-2.405-2.338-4.825-3.534-7.224
			c-0.858-1.719-1.787-3.401-2.646-5.12c-1.101-2.203-2.146-4.434-3.245-6.639c-0.856-1.718-1.776-3.406-2.636-5.123
			c-1.176-2.351-2.311-4.722-3.481-7.074c-0.806-1.619-1.655-3.216-2.466-4.832c-1.129-2.251-2.245-4.509-3.358-6.768
			c-1.004-2.038-1.99-4.083-2.996-6.12c-0.994-2.014-2.001-4.022-3.008-6.031c-0.995-1.984-2-3.962-2.993-5.947
			c-1.005-2.008-1.999-4.021-3-6.03c-1.001-2.01-2.01-4.016-3.006-6.029c-1.298-2.625-2.574-5.26-3.885-7.878
			c-0.775-1.546-1.634-3.051-2.393-4.605c-0.776-1.591-1.466-3.225-2.218-4.829c-0.246-0.525-0.589-1.003-0.848-1.523
			c-0.778-1.565-1.533-3.141-2.314-4.705c-0.028-0.056-0.227-0.026-0.347-0.036c-0.059-0.252-0.169-0.504-0.169-0.757
			C98.361,15.696,98.363,8.181,98.363,0.667z"/>
		<path fill-rule="evenodd" clip-rule="evenodd" fill="#E33338" d="M98.363,122.819c0,25.537,0,51.074,0,76.611
			c-1.75-0.899-3.503-1.796-5.251-2.7c-1.433-0.741-2.864-1.487-4.291-2.242c-1.574-0.832-3.133-1.691-4.712-2.512
			c-2.401-1.247-4.825-2.451-7.219-3.711c-2.619-1.378-5.205-2.819-7.826-4.194c-2.516-1.318-5.063-2.578-7.587-3.882
			c-1.46-0.754-2.898-1.55-4.353-2.314c-1.84-0.968-3.688-1.922-5.529-2.886c-2.23-1.167-4.456-2.342-6.688-3.507
			c-2.449-1.277-4.907-2.54-7.354-3.823c-2.57-1.348-5.125-2.721-7.697-4.065c-2.495-1.306-5.004-2.584-7.502-3.885
			c-2.234-1.162-4.467-2.326-6.68-3.527c-0.223-0.121-0.402-0.491-0.436-0.767c-0.205-1.689-0.345-3.387-0.538-5.078
			c-0.221-1.937-0.474-3.87-0.713-5.805c-0.179-0.333,0.385-0.913-0.353-1.06c-0.24-1.875-0.494-3.749-0.713-5.627
			c-0.142-1.213-0.208-2.436-0.352-3.649c-0.218-1.849-0.488-3.69-0.707-5.539c-0.143-1.214-0.226-2.434-0.349-3.649
			c-0.17-1.694-0.165-3.435-0.577-5.068c-0.511-2.021-0.576-4.067-0.837-6.103c-0.282-2.206-0.613-4.406-0.875-6.615
			c-0.214-1.806-0.332-3.623-0.541-5.431c-0.203-1.761-0.474-3.515-0.697-5.274c-0.044-0.347-0.003-0.705-0.001-1.058
			c-0.163-0.276,0.382-0.835-0.353-0.883c-0.239-1.875-0.494-3.749-0.713-5.627c-0.142-1.213-0.208-2.436-0.352-3.649
			c-0.218-1.848-0.489-3.691-0.707-5.539c-0.143-1.214-0.227-2.434-0.349-3.65c-0.17-1.694-0.169-3.433-0.577-5.068
			c-0.503-2.021-0.584-4.066-0.831-6.103c-0.309-2.556-0.592-5.114-0.886-7.672c-0.236-2.051-0.468-4.104-0.708-6.155
			c-0.17-1.458-0.351-2.916-0.527-4.374c-0.163-0.276,0.382-0.835-0.353-0.883c-0.24-1.93-0.493-3.858-0.715-5.791
			c-0.139-1.211-0.233-2.427-0.344-3.642c-0.062-0.68-0.118-1.361-0.177-2.042c0-0.294,0-0.588,0-0.883
			c1.639-0.527,3.285-1.033,4.915-1.587c2.507-0.854,4.998-1.758,7.505-2.61c3.258-1.107,6.524-2.188,9.79-3.273
			c2.981-0.99,5.972-1.952,8.947-2.962c3.181-1.08,6.338-2.228,9.521-3.299c3.444-1.159,6.907-2.261,10.359-3.394
			c2.491-0.818,4.983-1.631,7.466-2.472c3.777-1.279,7.542-2.595,11.32-3.87c3.234-1.091,6.483-2.142,9.723-3.218
			c3.007-0.999,6.01-2.009,9.016-3.012c3.136-1.046,6.272-2.091,9.409-3.136c0,7.515-0.001,15.029,0.007,22.544
			c0,0.252,0.11,0.504,0.169,0.757c-1.047,2.14-2.106,4.273-3.137,6.42c-1.029,2.143-2.029,4.299-3.042,6.45
			c-1.117,2.373-2.222,4.751-3.355,7.116c-0.912,1.902-1.871,3.781-2.787,5.681c-1.021,2.117-2.013,4.248-3.025,6.369
			c-0.94,1.974-1.897,3.939-2.834,5.915c-1.078,2.272-2.144,4.552-3.214,6.828c-0.987,2.102-1.96,4.21-2.965,6.303
			c-0.983,2.047-2.015,4.07-2.998,6.118c-1.089,2.267-2.141,4.553-3.223,6.824c-1.035,2.173-2.089,4.336-3.133,6.505
			c-0.925,1.922-1.858,3.842-2.77,5.771c-1.028,2.174-2.027,4.364-3.059,6.537c-0.927,1.951-1.887,3.887-2.822,5.835
			c-1.09,2.268-2.175,4.538-3.251,6.813c-1.041,2.199-2.054,4.412-3.106,6.606c-0.922,1.925-1.898,3.823-2.819,5.748
			c-1.085,2.269-2.135,4.554-3.204,6.829c-0.988,2.102-1.984,4.199-2.973,6.301c-0.685,1.457-1.356,2.921-2.049,4.374
			c-0.435,0.911-0.899,1.809-1.4,2.814c0.316,0,0.512,0.002,0.707-0.001c4.035-0.059,8.069-0.113,12.104-0.178
			c3.24-0.052,6.481-0.116,9.722-0.175c0.059-0.001,0.131,0.021,0.174-0.006c0.174-0.11,0.423-0.198,0.494-0.359
			c0.667-1.526,1.292-3.07,1.95-4.601c0.993-2.309,2.016-4.604,3.001-6.917c1.016-2.386,1.995-4.787,3.001-7.177
			c1.315-3.12,2.655-6.23,3.949-9.359c0.18-0.436,0.371-0.546,0.831-0.544C81.658,122.825,90.011,122.819,98.363,122.819z"/>
		<path fill-rule="evenodd" clip-rule="evenodd" fill="#F09294" d="M13.632,143.473c0.738,0.146,0.174,0.727,0.353,1.06
			C13.247,144.386,13.811,143.806,13.632,143.473z"/>
		<path fill-rule="evenodd" clip-rule="evenodd" fill="#F7C5C6" d="M1.629,45.856c0.735,0.047,0.19,0.607,0.353,0.883
			C1.247,46.691,1.792,46.132,1.629,45.856z"/>
		<path fill-rule="evenodd" clip-rule="evenodd" fill="#F09294" d="M7.63,94.576c0.735,0.047,0.19,0.607,0.353,0.883
			C7.249,95.412,7.793,94.852,7.63,94.576z"/>
		<path fill-rule="evenodd" clip-rule="evenodd" fill="none" d="M98.363,122.819c-8.352,0-16.705,0.006-25.057-0.013
			c-0.46-0.002-0.65,0.108-0.831,0.544c-1.294,3.129-2.634,6.239-3.949,9.359c-1.007,2.39-1.985,4.791-3.001,7.177
			c-0.985,2.313-2.008,4.608-3.001,6.917c-0.658,1.53-1.283,3.074-1.95,4.601c-0.071,0.161-0.32,0.249-0.494,0.359
			c-0.042,0.027-0.115,0.005-0.174,0.006c-3.241,0.059-6.481,0.123-9.722,0.175c-4.035,0.064-8.069,0.119-12.104,0.178
			c-0.195,0.003-0.391,0.001-0.707,0.001c0.501-1.006,0.966-1.903,1.4-2.814c0.693-1.453,1.364-2.917,2.049-4.374
			c0.989-2.102,1.985-4.199,2.973-6.301c1.069-2.275,2.119-4.561,3.204-6.829c0.921-1.925,1.897-3.823,2.819-5.748
			c1.052-2.194,2.065-4.407,3.106-6.606c1.076-2.274,2.161-4.545,3.251-6.813c0.936-1.948,1.896-3.884,2.822-5.835
			c1.032-2.173,2.03-4.362,3.059-6.537c0.912-1.929,1.845-3.848,2.77-5.771c1.044-2.169,2.098-4.333,3.133-6.505
			c1.082-2.271,2.134-4.557,3.223-6.824c0.983-2.047,2.014-4.071,2.998-6.118c1.005-2.093,1.978-4.202,2.965-6.303
			c1.07-2.276,2.136-4.556,3.214-6.828c0.937-1.975,1.894-3.941,2.834-5.915c1.012-2.122,2.004-4.252,3.025-6.369
			c0.916-1.9,1.875-3.779,2.787-5.681c1.133-2.365,2.238-4.743,3.355-7.116c1.013-2.15,2.013-4.307,3.042-6.45
			c1.031-2.147,2.09-4.28,3.137-6.42c0.12,0.01,0.319-0.02,0.347,0.036c0.781,1.564,1.536,3.14,2.314,4.705
			c0.259,0.52,0.602,0.999,0.848,1.523c0.752,1.604,1.441,3.238,2.218,4.829c0.759,1.554,1.617,3.059,2.393,4.605
			c1.311,2.618,2.587,5.254,3.885,7.878c0.996,2.013,2.005,4.019,3.006,6.029c1.001,2.009,1.995,4.022,3,6.03
			c0.993,1.985,1.998,3.963,2.993,5.947c1.007,2.008,2.014,4.017,3.008,6.031c1.006,2.037,1.992,4.083,2.996,6.12
			c1.113,2.259,2.229,4.517,3.358,6.768c0.811,1.616,1.66,3.213,2.466,4.832c1.171,2.353,2.306,4.724,3.481,7.074
			c0.859,1.717,1.779,3.405,2.636,5.123c1.099,2.205,2.145,4.436,3.245,6.639c0.858,1.719,1.787,3.401,2.646,5.12
			c1.196,2.398,2.351,4.818,3.534,7.224c0.991,2.015,1.992,4.024,2.998,6.032c0.994,1.984,2.006,3.962,3.001,5.946
			c1.006,2.007,2,4.02,3.003,6.028c0.991,1.985,1.985,3.968,2.979,5.951c1.007,2.009,2.009,4.021,3.024,6.025
			c0.337,0.665,0.71,1.312,1.09,2.012c-2.399,0-4.718,0.021-7.036-0.005c-3.477-0.04-6.954-0.103-10.431-0.177
			c-1.389-0.029-2.778-0.093-4.163-0.192c-0.225-0.016-0.531-0.254-0.628-0.467c-0.834-1.839-1.615-3.7-2.437-5.544
			c-0.956-2.147-1.93-4.288-2.91-6.424c-1.017-2.214-2.059-4.416-3.075-6.63c-0.981-2.136-1.924-4.29-2.923-6.418
			c-0.538-1.147-1.129-2.272-1.765-3.368c-0.134-0.232-0.564-0.413-0.859-0.414C117.309,122.816,107.836,122.819,98.363,122.819z
			 M98.363,66.156c-0.069,0.103-0.154,0.199-0.205,0.311c-0.875,1.91-1.759,3.816-2.615,5.734c-1.013,2.267-1.993,4.548-3.001,6.817
			c-1.409,3.168-2.826,6.333-4.248,9.495c-0.695,1.546-1.422,3.078-2.114,4.625c-0.968,2.167-1.929,4.338-2.87,6.518
			c-0.83,1.921-1.629,3.855-2.476,5.864c5.902,0,11.715,0,17.529,0c6.986,0,13.97,0,21.133,0c-0.993-1.834-1.959-3.56-2.87-5.314
			c-1.034-1.993-2.015-4.014-3.027-6.019c-1.013-2.004-2.037-4.004-3.056-6.005c-1.057-2.076-2.107-4.155-3.169-6.228
			c-1-1.952-2.026-3.891-3.01-5.85c-1.018-2.028-2.003-4.072-2.993-6.114c-0.656-1.35-1.291-2.709-1.948-4.058
			c-0.133-0.273-0.326-0.518-0.491-0.775c-0.19,0.304-0.38,0.607-0.567,0.912C98.352,66.09,98.363,66.127,98.363,66.156z"/>
		<path fill-rule="evenodd" clip-rule="evenodd" fill="#B53032" d="M98.363,66.156c0-0.029-0.011-0.066,0.002-0.087
			c0.187-0.305,0.377-0.608,0.567-0.912c0.165,0.258,0.357,0.502,0.491,0.775c0.657,1.349,1.292,2.708,1.948,4.058
			c0.99,2.042,1.976,4.086,2.993,6.114c0.983,1.959,2.01,3.898,3.01,5.85c1.062,2.073,2.112,4.152,3.169,6.228
			c1.019,2.001,2.043,4.001,3.056,6.005c1.013,2.005,1.993,4.026,3.027,6.019c0.911,1.754,1.877,3.48,2.87,5.314
			c-7.163,0-14.147,0-21.133,0C98.363,92.399,98.363,79.278,98.363,66.156z"/>
		<path fill-rule="evenodd" clip-rule="evenodd" fill="#E33338" d="M98.363,66.156c0,13.122,0,26.243,0,39.364
			c-5.814,0-11.627,0-17.529,0c0.847-2.009,1.646-3.942,2.476-5.864c0.941-2.179,1.902-4.35,2.87-6.518
			c0.691-1.548,1.418-3.08,2.114-4.625c1.422-3.162,2.839-6.327,4.248-9.495c1.008-2.269,1.989-4.55,3.001-6.817
			c0.856-1.918,1.74-3.824,2.615-5.734C98.209,66.355,98.294,66.259,98.363,66.156z"/>
	</g>
</g>
<g>
	<path fill-rule="evenodd" clip-rule="evenodd" fill="#305CA8" d="M179.193,200.307c-0.014-0.127-0.087-0.181-0.211-0.177
		c-0.188,0.006-0.375,0.016-0.563,0.015c-9.816-0.053-19.642,0.124-29.445-0.254c-5.207-0.201-10.41,0.055-15.602-0.261
		c-3.182-0.193-6.356-0.071-9.533-0.122c-7.047-0.113-14.106,0.054-21.138-0.266c-5.209-0.237-10.41,0.042-15.604-0.246
		c-4.926-0.272-9.854,0.052-14.772-0.167c-5.329-0.236-10.659,0.028-15.981-0.176c-1.916-0.073-3.829-0.047-5.742-0.126
		c-0.152-0.007-0.436,0.139-0.42-0.181c0.011-0.229,0.25-0.111,0.389-0.136c0.971-0.171,2.013-0.097,2.919-0.374
		c1.548-0.474,3.142-0.49,4.703-0.709c1.272-0.179,2.516-0.601,3.833-0.548c1.026,0.04,1.987-0.439,3.027-0.514
		c0.701-0.049,1.429-0.174,2.139-0.247c0.673-0.068,1.414-0.058,2.013-0.242c1.385-0.427,2.833-0.283,4.187-0.632
		c1.869-0.48,3.804-0.387,5.645-0.817c1.449-0.34,2.942-0.263,4.341-0.637c1.87-0.501,3.807-0.381,5.646-0.816
		c1.423-0.337,2.89-0.251,4.263-0.631c1.866-0.517,3.805-0.381,5.645-0.821c1.079-0.258,2.166-0.399,3.243-0.533
		c1.253-0.155,2.463-0.548,3.743-0.564c1.006-0.014,2.061-0.095,2.999-0.357c1.42-0.396,2.909-0.218,4.261-0.64
		c1.552-0.484,3.144-0.483,4.704-0.709c1.271-0.183,2.521-0.541,3.832-0.567c1.056-0.021,2.106-0.348,3.156-0.559
		c0.584-0.117,1.185-0.104,1.771-0.166c0.697-0.073,1.45-0.082,2.096-0.252c1.466-0.386,3-0.283,4.418-0.66
		c1.347-0.357,2.7-0.339,4.035-0.586c1.127-0.21,2.256-0.416,3.382-0.637c0.484-0.095,0.994-0.087,1.467-0.115
		c1.248-0.073,2.408-0.646,3.674-0.552c0.287,0.021,0.586-0.118,1.018-0.215c-0.771-0.732-1.162-1.621-1.72-2.404
		c-1.001-1.407-1.951-2.852-2.914-4.286c-1.811-2.697-3.606-5.405-5.425-8.097c-1.055-1.561-2.107-3.122-3.177-4.672
		c-1.023-1.483-2.004-2.998-3.019-4.489c-0.809-1.188-1.573-2.418-2.388-3.605c-1.596-2.326-3.082-4.725-4.719-7.025
		c-1.06-1.489-2.06-3.026-3.068-4.551c-1.088-1.643-2.187-3.283-3.251-4.943c-1.208-1.883-2.511-3.704-3.763-5.558
		c-0.979-1.45-1.939-2.915-2.92-4.365c-1.039-1.538-2.107-3.057-3.139-4.6c-1.507-2.256-2.987-4.528-4.49-6.787
		c-0.857-1.291-1.736-2.567-2.604-3.852c-1.011-1.493-2.043-2.973-3.022-4.486c-0.679-1.048-1.31-2.125-2.107-3.091
		c-0.472-0.572-0.22-1.171,0.005-1.738c0.825-2.086,1.766-4.131,2.489-6.25c1.845-5.402,4.075-10.655,6.092-15.99
		c1.726-4.565,3.604-9.077,5.308-13.651c1.364-3.666,2.848-7.284,4.175-10.964c0.946-2.623,2.04-5.193,3.052-7.793
		c1.139-2.925,2.262-5.855,3.388-8.785c1.197-3.116,2.391-6.233,3.584-9.35c0.313-0.814,0.615-1.631,0.936-2.441
		c0.07-0.178,0.176-0.448,0.306-0.474c0.254-0.051,0.265,0.275,0.335,0.434c0.777,1.751,1.521,3.517,2.291,5.271
		c1.39,3.17,2.779,6.34,4.188,9.502c0.974,2.186,1.991,4.352,2.966,6.537c1.166,2.615,2.301,5.244,3.461,7.862
		c0.979,2.209,1.979,4.409,2.962,6.617c1.184,2.662,2.344,5.335,3.536,7.992c1.204,2.683,2.415,5.365,3.609,8.053
		c1.162,2.616,2.297,5.246,3.47,7.854c1.114,2.478,2.224,4.959,3.353,7.432c1.405,3.08,2.714,6.204,4.091,9.297
		c0.983,2.21,2.083,4.37,2.997,6.606c0.744,1.819,1.555,3.61,2.326,5.414c0.919,2.151,1.961,4.259,2.91,6.401
		c1.129,2.55,2.244,5.107,3.375,7.654c1.183,2.665,2.383,5.323,3.567,7.987c1.173,2.64,2.349,5.277,3.501,7.926
		c1.014,2.329,2.035,4.655,3.074,6.973c0.866,1.933,1.728,3.866,2.583,5.803c0.854,1.937,1.727,3.866,2.579,5.805
		c0.853,1.938,1.725,3.866,2.58,5.804c0.854,1.937,1.687,3.888,2.583,5.802c1.239,2.643,2.341,5.344,3.577,7.983
		c0.931,1.986,1.802,3.997,2.684,6.004c0.971,2.214,1.971,4.414,2.993,6.604c0.076,0.163-0.107,0.47,0.232,0.505
		c0,0.107,0,0.215,0,0.322C193.172,200.307,186.183,200.307,179.193,200.307z"/>
	<path fill-rule="evenodd" clip-rule="evenodd" fill="#305CA8" d="M0.161,181.919c0.806-1.751,1.603-3.508,2.421-5.254
		c0.772-1.647,1.617-3.264,2.341-4.933c0.745-1.716,1.577-3.39,2.331-5.1c0.715-1.62,1.51-3.201,2.232-4.815
		c0.59-1.318,1.202-2.627,1.81-3.937c0.775-1.673,1.512-3.361,2.313-5.023c0.646-1.343,1.246-2.717,1.863-4.078
		c0.761-1.678,1.527-3.354,2.295-5.028c0.581-1.269,1.171-2.533,1.751-3.802c0.736-1.608,1.458-3.223,2.203-4.826
		c0.599-1.289,1.236-2.561,1.832-3.852c0.833-1.809,1.644-3.628,2.462-5.442c0.747-1.657,1.419-3.353,2.256-4.962
		c1.062-2.039,1.895-4.18,2.933-6.229c0.866-1.707,1.552-3.505,2.347-5.249c0.692-1.52,1.439-3.014,2.138-4.53
		c0.761-1.65,1.477-3.321,2.246-4.968c0.971-2.079,2.011-4.126,2.952-6.218c0.553-1.228,1.094-2.459,1.689-3.67
		c0.888-1.809,1.677-3.666,2.506-5.504c0.941-2.088,1.833-4.2,2.831-6.26c0.848-1.75,1.561-3.566,2.478-5.275
		c0.46-0.858,1.248-1.547,1.918-2.285c0.524-0.578,1.104-1.104,1.644-1.669c0.882-0.923,1.761-1.85,2.622-2.792
		c0.799-0.874,1.516-1.83,2.372-2.642c0.864-0.818,1.651-1.713,2.459-2.573c0.936-0.997,1.868-2.01,2.786-3.029
		c1.035-1.15,2.071-2.299,3.183-3.382c0.846-0.824,1.569-1.773,2.369-2.645c0.919-1.002,1.911-1.941,2.781-2.982
		c0.745-0.891,1.59-1.686,2.348-2.565c0.702-0.815,1.49-1.574,2.22-2.377c0.564-0.62,1.158-1.213,1.732-1.824
		c0.804-0.854,1.602-1.713,2.404-2.569c0.817-0.873,1.636-1.745,2.455-2.616c0.819-0.872,1.677-1.711,2.447-2.624
		c0.498-0.589,1.018-1.148,1.553-1.7c0.85-0.879,1.702-1.758,2.511-2.675c0.671-0.76,1.368-1.494,2.067-2.228
		c1.094-1.148,2.131-2.349,3.209-3.512c1.575-1.698,3.167-3.38,4.746-5.074c1.356-1.455,2.738-2.887,4.047-4.385
		c1.427-1.633,2.94-3.187,4.396-4.791c1.417-1.561,2.865-3.108,4.353-4.612c1.261-1.275,2.405-2.665,3.614-3.992
		c0.534-0.587,1.195-1.058,1.601-1.762c0.107,0,0.215,0,0.323,0c-0.149,1.04-0.775,1.889-1.137,2.845
		c-0.597,1.583-1.266,3.144-1.959,4.681c-1.035,2.296-1.956,4.639-3.009,6.927c-1.165,2.531-2.165,5.137-3.255,7.703
		c-1.051,2.476-2.157,4.928-3.171,7.419c-0.469,1.152-0.982,2.285-1.426,3.45c-0.717,1.883-1.668,3.676-2.418,5.548
		c-1.017,2.542-2.09,5.062-3.173,7.573c-1.045,2.424-2.051,4.868-3.132,7.279c-0.824,1.838-1.516,3.736-2.324,5.582
		c-0.949,2.167-1.861,4.347-2.776,6.528c-1.213,2.893-2.471,5.767-3.697,8.655c-1.1,2.59-2.266,5.157-3.348,7.755
		c-1.024,2.458-2.117,4.887-3.095,7.366c-0.923,2.34-2.053,4.597-3.038,6.913c-1.11,2.609-2.07,5.286-3.262,7.856
		c-1.112,2.399-2.101,4.85-3.14,7.277c-0.792,1.85-1.599,3.697-2.348,5.569c-0.749,1.868-1.587,3.71-2.385,5.563
		c-0.768,1.784-1.498,3.584-2.262,5.369c-1.068,2.496-2.188,4.97-3.217,7.482c-0.754,1.841-1.557,3.663-2.313,5.503
		c-0.728,1.771-1.519,3.524-2.28,5.286c-1.135,2.627-2.229,5.272-3.337,7.91c-1.225,2.915-2.456,5.828-3.712,8.729
		c-0.912,2.104-1.803,4.217-2.717,6.32c-1.152,2.648-2.266,5.313-3.384,7.977c-0.063,0.151-0.111,0.201-0.269,0.196
		c-1.232-0.036-2.457,0.144-3.652,0.354c-1.345,0.237-2.706,0.321-4.042,0.581c-0.542,0.105-1.092,0.067-1.631,0.116
		c-1.315,0.119-2.578,0.579-3.904,0.554c-0.738-0.015-1.519,0.034-2.178,0.218c-1.6,0.445-3.231,0.378-4.838,0.604
		c-2.094,0.296-4.204,0.529-6.282,0.866c-2.126,0.344-4.284,0.359-6.375,0.781c-1.663,0.336-3.368,0.277-4.983,0.653
		c-1.638,0.382-3.275,0.434-4.918,0.592C0.161,182.135,0.161,182.027,0.161,181.919z"/>
	<path fill-rule="evenodd" clip-rule="evenodd" fill="#FFFFFF" d="M179.193,200.307c6.989,0,13.979,0,20.968,0
		c-0.035,0.05,0.082,0.168-0.08,0.163c-0.215-0.007-0.431-0.002-0.646-0.002c-66.183,0-132.366,0-198.548-0.01
		c-0.236,0-0.547,0.186-0.726-0.151C59.839,200.307,119.517,200.307,179.193,200.307z"/>
</g>
</svg>
