<?xml version="1.0" encoding="utf-8"?>
<!-- Generator: Adobe Illustrator 16.0.3, SVG Export Plug-In . SVG Version: 6.00 Build 0)  -->
<!DOCTYPE svg PUBLIC "-//W3C//DTD SVG 1.1//EN" "http://www.w3.org/Graphics/SVG/1.1/DTD/svg11.dtd">
<svg version="1.1" id="Capa_1" xmlns="http://www.w3.org/2000/svg" xmlns:xlink="http://www.w3.org/1999/xlink" x="0px" y="0px"
	 width="200px" height="200px" viewBox="0 0 200 200" enable-background="new 0 0 200 200" xml:space="preserve">
<g display="none">
	<g display="inline">
		<path fill-rule="evenodd" clip-rule="evenodd" fill="none" d="M0.217,33.5c0-10.885,0.006-21.771-0.017-32.656
			C0.198,0.238,0.318,0.12,0.923,0.121c66.254,0.018,132.509,0.018,198.764,0c0.604,0,0.723,0.118,0.723,0.723
			c-0.018,66.196-0.018,132.391,0,198.587c0,0.604-0.118,0.723-0.723,0.723c-66.255-0.018-132.509-0.019-198.764,0.008
			c-0.76,0.001-0.712-0.301-0.712-0.819C0.217,144.355,0.217,89.369,0.217,34.382c0.059,0,0.117,0,0.176,0
			c0.059,0.681,0.115,1.361,0.177,2.042c0.111,1.214,0.205,2.431,0.344,3.642c0.222,1.932,0.475,3.861,0.715,5.791
			c0.163,0.276-0.382,0.835,0.353,0.883c0.176,1.458,0.357,2.916,0.527,4.374c0.24,2.051,0.472,4.104,0.708,6.155
			c0.294,2.558,0.577,5.116,0.886,7.672c0.247,2.037,0.328,4.083,0.831,6.103c0.407,1.636,0.406,3.375,0.577,5.068
			c0.122,1.216,0.206,2.436,0.349,3.65c0.218,1.848,0.488,3.691,0.707,5.539c0.143,1.213,0.209,2.436,0.352,3.649
			c0.219,1.878,0.474,3.751,0.713,5.627c0.163,0.276-0.382,0.835,0.353,0.883c-0.001,0.353-0.042,0.71,0.001,1.058
			c0.223,1.76,0.494,3.513,0.697,5.274c0.208,1.808,0.326,3.625,0.541,5.431c0.262,2.209,0.593,4.409,0.875,6.615
			c0.261,2.035,0.326,4.082,0.837,6.103c0.413,1.634,0.407,3.374,0.577,5.068c0.123,1.216,0.206,2.436,0.349,3.649
			c0.218,1.849,0.489,3.69,0.707,5.539c0.143,1.214,0.21,2.437,0.352,3.649c0.22,1.878,0.474,3.752,0.713,5.627
			c0.178,0.333-0.385,0.913,0.353,1.06c0.239,1.935,0.492,3.868,0.713,5.805c0.193,1.691,0.333,3.389,0.538,5.078
			c0.033,0.275,0.212,0.646,0.436,0.767c2.213,1.201,4.446,2.365,6.68,3.527c2.498,1.301,5.007,2.579,7.502,3.885
			c2.571,1.345,5.127,2.718,7.697,4.065c2.447,1.283,4.905,2.546,7.354,3.823c2.232,1.165,4.458,2.34,6.688,3.507
			c1.842,0.964,3.689,1.918,5.529,2.886c1.454,0.765,2.893,1.561,4.353,2.314c2.524,1.304,5.072,2.563,7.587,3.882
			c2.621,1.375,5.207,2.816,7.826,4.194c2.394,1.26,4.818,2.464,7.219,3.711c1.58,0.82,3.139,1.68,4.712,2.512
			c1.427,0.755,2.858,1.501,4.291,2.242c1.749,0.904,3.501,1.801,5.251,2.7c0.417-0.116,0.869-0.163,1.243-0.359
			c1.506-0.789,2.977-1.647,4.485-2.435c1.426-0.744,2.893-1.41,4.322-2.148c1.437-0.741,2.842-1.545,4.275-2.293
			c2.593-1.354,5.199-2.683,7.795-4.032c1.627-0.846,3.236-1.724,4.866-2.563c1.358-0.7,2.743-1.348,4.1-2.051
			c1.557-0.806,3.089-1.659,4.643-2.471c2.496-1.303,5.007-2.58,7.502-3.885c1.602-0.839,3.185-1.714,4.783-2.561
			c1.474-0.781,2.961-1.54,4.436-2.32c1.816-0.961,3.612-1.961,5.442-2.895c2.26-1.153,4.557-2.233,6.815-3.389
			c1.393-0.712,2.729-1.532,4.117-2.254c1.523-0.793,3.089-1.507,4.615-2.293c1.583-0.816,3.139-1.685,4.713-2.519
			c1.862-0.987,3.735-1.952,5.592-2.949c0.436-0.233,0.95-0.326,1.018-1.062c0.13-1.418,0.448-2.816,0.663-4.228
			c0.31-2.026,0.623-4.053,0.886-6.086c0.215-1.659,0.33-3.331,0.541-4.99c0.266-2.091,0.587-4.175,0.878-6.263
			c0.237-1.701,0.461-3.404,0.699-5.105c0.292-2.088,0.617-4.172,0.884-6.263c0.211-1.659,0.324-3.331,0.538-4.99
			c0.263-2.033,0.591-4.058,0.879-6.087c0.241-1.7,0.466-3.403,0.695-5.105c0.064-0.475,0.116-0.952,0.182-1.427
			c0.236-1.729,0.488-3.457,0.71-5.188c0.141-1.095,0.219-2.198,0.359-3.293c0.22-1.703,0.465-3.402,0.705-5.102
			c0.169-1.197,0.347-2.393,0.521-3.589c0.179-1.223,0.371-2.444,0.534-3.669c0.142-1.064,0.236-2.134,0.378-3.198
			c0.216-1.617,0.472-3.228,0.679-4.846c0.144-1.125,0.205-2.261,0.354-3.385c0.276-2.09,0.591-4.175,0.888-6.263
			c0.241-1.698,0.482-3.397,0.718-5.096c0.063-0.448,0.096-0.901,0.155-1.35c0.235-1.758,0.488-3.515,0.712-5.275
			c0.136-1.067,0.211-2.143,0.35-3.209c0.222-1.702,0.472-3.4,0.715-5.099c0.162-1.141,0.321-2.282,0.502-3.419
			c0.172-1.076,0.395-2.144,0.551-3.222c0.258-1.785,0.505-3.572,0.702-5.364c0.053-0.473,0.201-1.023-0.605-1.236
			c-2.249-0.594-4.482-1.253-6.701-1.953c-3.232-1.02-6.447-2.095-9.669-3.149c-2.885-0.943-5.765-1.898-8.653-2.829
			c-2.863-0.923-5.734-1.819-8.601-2.732c-4.064-1.295-8.133-2.578-12.189-3.897c-3.977-1.293-7.933-2.65-11.912-3.933
			c-3.124-1.007-6.277-1.921-9.404-2.918c-4.116-1.313-8.215-2.68-12.329-3.998c-3.359-1.077-6.737-2.094-10.094-3.179
			c-3.381-1.092-6.743-2.24-10.12-3.343c-0.26-0.085-0.572-0.009-0.86-0.008c-3.136,1.045-6.273,2.089-9.409,3.136
			c-3.005,1.003-6.009,2.013-9.016,3.012c-3.24,1.076-6.488,2.127-9.723,3.218c-3.778,1.275-7.543,2.59-11.32,3.87
			c-2.483,0.841-4.975,1.654-7.466,2.472c-3.452,1.133-6.915,2.235-10.359,3.394c-3.183,1.072-6.341,2.219-9.521,3.299
			c-2.975,1.01-5.966,1.972-8.947,2.962c-3.265,1.085-6.532,2.166-9.79,3.273c-2.508,0.853-4.998,1.757-7.505,2.61
			c-1.629,0.555-3.276,1.06-4.915,1.587C0.334,33.5,0.275,33.5,0.217,33.5z"/>
		<path fill-rule="evenodd" clip-rule="evenodd" fill="#F7C2C3" d="M0.393,34.382c-0.059,0-0.118,0-0.176,0c0-0.294,0-0.588,0-0.883
			c0.059,0,0.117,0,0.176,0C0.393,33.794,0.393,34.088,0.393,34.382z"/>
		<path fill-rule="evenodd" clip-rule="evenodd" fill="#B53032" d="M98.363,0.667c0.288-0.001,0.6-0.077,0.86,0.008
			c3.377,1.103,6.739,2.251,10.12,3.343c3.356,1.084,6.734,2.102,10.094,3.179c4.114,1.318,8.213,2.686,12.329,3.998
			c3.127,0.997,6.28,1.911,9.404,2.918c3.979,1.283,7.936,2.639,11.912,3.933c4.057,1.319,8.125,2.603,12.189,3.897
			c2.866,0.913,5.737,1.809,8.601,2.732c2.889,0.931,5.769,1.886,8.653,2.829c3.222,1.054,6.437,2.129,9.669,3.149
			c2.219,0.699,4.452,1.359,6.701,1.953c0.807,0.213,0.658,0.763,0.605,1.236c-0.197,1.792-0.444,3.579-0.702,5.364
			c-0.156,1.078-0.379,2.146-0.551,3.222c-0.181,1.137-0.34,2.278-0.502,3.419c-0.243,1.699-0.493,3.397-0.715,5.099
			c-0.139,1.066-0.214,2.142-0.35,3.209c-0.224,1.76-0.477,3.517-0.712,5.275c-0.06,0.449-0.093,0.901-0.155,1.35
			c-0.235,1.699-0.477,3.398-0.718,5.096c-0.297,2.088-0.611,4.173-0.888,6.263c-0.148,1.125-0.21,2.26-0.354,3.385
			c-0.207,1.618-0.463,3.229-0.679,4.846c-0.142,1.064-0.236,2.134-0.378,3.198c-0.163,1.225-0.355,2.446-0.534,3.669
			c-0.174,1.196-0.352,2.392-0.521,3.589c-0.24,1.7-0.485,3.399-0.705,5.102c-0.141,1.095-0.219,2.198-0.359,3.293
			c-0.222,1.731-0.474,3.459-0.71,5.188c-0.065,0.475-0.117,0.952-0.182,1.427c-0.229,1.702-0.454,3.405-0.695,5.105
			c-0.288,2.029-0.616,4.054-0.879,6.087c-0.214,1.659-0.327,3.331-0.538,4.99c-0.267,2.091-0.592,4.175-0.884,6.263
			c-0.238,1.701-0.462,3.404-0.699,5.105c-0.291,2.088-0.612,4.172-0.878,6.263c-0.211,1.659-0.326,3.331-0.541,4.99
			c-0.263,2.033-0.576,4.06-0.886,6.086c-0.215,1.411-0.533,2.81-0.663,4.228c-0.067,0.735-0.582,0.828-1.018,1.062
			c-1.856,0.997-3.729,1.962-5.592,2.949c-1.574,0.834-3.13,1.702-4.713,2.519c-1.526,0.786-3.092,1.5-4.615,2.293
			c-1.388,0.722-2.725,1.542-4.117,2.254c-2.259,1.155-4.556,2.235-6.815,3.389c-1.83,0.934-3.626,1.934-5.442,2.895
			c-1.475,0.78-2.962,1.539-4.436,2.32c-1.599,0.847-3.182,1.722-4.783,2.561c-2.495,1.305-5.006,2.582-7.502,3.885
			c-1.554,0.812-3.086,1.665-4.643,2.471c-1.356,0.703-2.741,1.351-4.1,2.051c-1.63,0.84-3.239,1.718-4.866,2.563
			c-2.596,1.35-5.202,2.678-7.795,4.032c-1.434,0.748-2.839,1.552-4.275,2.293c-1.43,0.738-2.896,1.404-4.322,2.148
			c-1.508,0.787-2.979,1.646-4.485,2.435c-0.375,0.196-0.827,0.243-1.243,0.359c0-25.537,0-51.074,0-76.611
			c9.473,0,18.946-0.003,28.418,0.018c0.295,0.001,0.726,0.182,0.859,0.414c0.636,1.096,1.227,2.221,1.765,3.368
			c0.999,2.128,1.941,4.282,2.923,6.418c1.017,2.214,2.059,4.416,3.075,6.63c0.98,2.136,1.954,4.276,2.91,6.424
			c0.821,1.844,1.603,3.705,2.437,5.544c0.097,0.213,0.403,0.451,0.628,0.467c1.385,0.1,2.774,0.163,4.163,0.192
			c3.477,0.074,6.954,0.137,10.431,0.177c2.318,0.026,4.637,0.005,7.036,0.005c-0.38-0.7-0.753-1.347-1.09-2.012
			c-1.016-2.005-2.018-4.017-3.024-6.025c-0.994-1.983-1.988-3.966-2.979-5.951c-1.003-2.009-1.997-4.021-3.003-6.028
			c-0.995-1.984-2.007-3.962-3.001-5.946c-1.006-2.008-2.007-4.018-2.998-6.032c-1.184-2.405-2.338-4.825-3.534-7.224
			c-0.858-1.719-1.787-3.401-2.646-5.12c-1.101-2.203-2.146-4.434-3.245-6.639c-0.856-1.718-1.776-3.406-2.636-5.123
			c-1.176-2.351-2.311-4.722-3.481-7.074c-0.806-1.619-1.655-3.216-2.466-4.832c-1.129-2.251-2.245-4.509-3.358-6.768
			c-1.004-2.038-1.99-4.083-2.996-6.12c-0.994-2.014-2.001-4.022-3.008-6.031c-0.995-1.984-2-3.962-2.993-5.947
			c-1.005-2.008-1.999-4.021-3-6.03c-1.001-2.01-2.01-4.016-3.006-6.029c-1.298-2.625-2.574-5.26-3.885-7.878
			c-0.775-1.546-1.634-3.051-2.393-4.605c-0.776-1.591-1.466-3.225-2.218-4.829c-0.246-0.525-0.589-1.003-0.848-1.523
			c-0.778-1.565-1.533-3.141-2.314-4.705c-0.028-0.056-0.227-0.026-0.347-0.036c-0.059-0.252-0.169-0.504-0.169-0.757
			C98.361,15.696,98.363,8.181,98.363,0.667z"/>
		<path fill-rule="evenodd" clip-rule="evenodd" fill="#E33338" d="M98.363,122.819c0,25.537,0,51.074,0,76.611
			c-1.75-0.899-3.503-1.796-5.251-2.7c-1.433-0.741-2.864-1.487-4.291-2.242c-1.574-0.832-3.133-1.691-4.712-2.512
			c-2.401-1.247-4.825-2.451-7.219-3.711c-2.619-1.378-5.205-2.819-7.826-4.194c-2.516-1.318-5.063-2.578-7.587-3.882
			c-1.46-0.754-2.898-1.55-4.353-2.314c-1.84-0.968-3.688-1.922-5.529-2.886c-2.23-1.167-4.456-2.342-6.688-3.507
			c-2.449-1.277-4.907-2.54-7.354-3.823c-2.57-1.348-5.125-2.721-7.697-4.065c-2.495-1.306-5.004-2.584-7.502-3.885
			c-2.234-1.162-4.467-2.326-6.68-3.527c-0.223-0.121-0.402-0.491-0.436-0.767c-0.205-1.689-0.345-3.387-0.538-5.078
			c-0.221-1.937-0.474-3.87-0.713-5.805c-0.179-0.333,0.385-0.913-0.353-1.06c-0.24-1.875-0.494-3.749-0.713-5.627
			c-0.142-1.213-0.208-2.436-0.352-3.649c-0.218-1.849-0.488-3.69-0.707-5.539c-0.143-1.214-0.226-2.434-0.349-3.649
			c-0.17-1.694-0.165-3.435-0.577-5.068c-0.511-2.021-0.576-4.067-0.837-6.103c-0.282-2.206-0.613-4.406-0.875-6.615
			c-0.214-1.806-0.332-3.623-0.541-5.431c-0.203-1.761-0.474-3.515-0.697-5.274c-0.044-0.347-0.003-0.705-0.001-1.058
			c-0.163-0.276,0.382-0.835-0.353-0.883c-0.239-1.875-0.494-3.749-0.713-5.627c-0.142-1.213-0.208-2.436-0.352-3.649
			c-0.218-1.848-0.489-3.691-0.707-5.539c-0.143-1.214-0.227-2.434-0.349-3.65c-0.17-1.694-0.169-3.433-0.577-5.068
			c-0.503-2.021-0.584-4.066-0.831-6.103c-0.309-2.556-0.592-5.114-0.886-7.672c-0.236-2.051-0.468-4.104-0.708-6.155
			c-0.17-1.458-0.351-2.916-0.527-4.374c-0.163-0.276,0.382-0.835-0.353-0.883c-0.24-1.93-0.493-3.858-0.715-5.791
			c-0.139-1.211-0.233-2.427-0.344-3.642c-0.062-0.68-0.118-1.361-0.177-2.042c0-0.294,0-0.588,0-0.883
			c1.639-0.527,3.285-1.033,4.915-1.587c2.507-0.854,4.998-1.758,7.505-2.61c3.258-1.107,6.524-2.188,9.79-3.273
			c2.981-0.99,5.972-1.952,8.947-2.962c3.181-1.08,6.338-2.228,9.521-3.299c3.444-1.159,6.907-2.261,10.359-3.394
			c2.491-0.818,4.983-1.631,7.466-2.472c3.777-1.279,7.542-2.595,11.32-3.87c3.234-1.091,6.483-2.142,9.723-3.218
			c3.007-0.999,6.01-2.009,9.016-3.012c3.136-1.046,6.272-2.091,9.409-3.136c0,7.515-0.001,15.029,0.007,22.544
			c0,0.252,0.11,0.504,0.169,0.757c-1.047,2.14-2.106,4.273-3.137,6.42c-1.029,2.143-2.029,4.299-3.042,6.45
			c-1.117,2.373-2.222,4.751-3.355,7.116c-0.912,1.902-1.871,3.781-2.787,5.681c-1.021,2.117-2.013,4.248-3.025,6.369
			c-0.94,1.974-1.897,3.939-2.834,5.915c-1.078,2.272-2.144,4.552-3.214,6.828c-0.987,2.102-1.96,4.21-2.965,6.303
			c-0.983,2.047-2.015,4.07-2.998,6.118c-1.089,2.267-2.141,4.553-3.223,6.824c-1.035,2.173-2.089,4.336-3.133,6.505
			c-0.925,1.922-1.858,3.842-2.77,5.771c-1.028,2.174-2.027,4.364-3.059,6.537c-0.927,1.951-1.887,3.887-2.822,5.835
			c-1.09,2.268-2.175,4.538-3.251,6.813c-1.041,2.199-2.054,4.412-3.106,6.606c-0.922,1.925-1.898,3.823-2.819,5.748
			c-1.085,2.269-2.135,4.554-3.204,6.829c-0.988,2.102-1.984,4.199-2.973,6.301c-0.685,1.457-1.356,2.921-2.049,4.374
			c-0.435,0.911-0.899,1.809-1.4,2.814c0.316,0,0.512,0.002,0.707-0.001c4.035-0.059,8.069-0.113,12.104-0.178
			c3.24-0.052,6.481-0.116,9.722-0.175c0.059-0.001,0.131,0.021,0.174-0.006c0.174-0.11,0.423-0.198,0.494-0.359
			c0.667-1.526,1.292-3.07,1.95-4.601c0.993-2.309,2.016-4.604,3.001-6.917c1.016-2.386,1.995-4.787,3.001-7.177
			c1.315-3.12,2.655-6.23,3.949-9.359c0.18-0.436,0.371-0.546,0.831-0.544C81.658,122.825,90.011,122.819,98.363,122.819z"/>
		<path fill-rule="evenodd" clip-rule="evenodd" fill="#F09294" d="M13.632,143.473c0.738,0.146,0.174,0.727,0.353,1.06
			C13.247,144.386,13.811,143.806,13.632,143.473z"/>
		<path fill-rule="evenodd" clip-rule="evenodd" fill="#F7C5C6" d="M1.629,45.856c0.735,0.047,0.19,0.607,0.353,0.883
			C1.247,46.691,1.792,46.132,1.629,45.856z"/>
		<path fill-rule="evenodd" clip-rule="evenodd" fill="#F09294" d="M7.63,94.576c0.735,0.047,0.19,0.607,0.353,0.883
			C7.249,95.412,7.793,94.852,7.63,94.576z"/>
		<path fill-rule="evenodd" clip-rule="evenodd" fill="none" d="M98.363,122.819c-8.352,0-16.705,0.006-25.057-0.013
			c-0.46-0.002-0.65,0.108-0.831,0.544c-1.294,3.129-2.634,6.239-3.949,9.359c-1.007,2.39-1.985,4.791-3.001,7.177
			c-0.985,2.313-2.008,4.608-3.001,6.917c-0.658,1.53-1.283,3.074-1.95,4.601c-0.071,0.161-0.32,0.249-0.494,0.359
			c-0.042,0.027-0.115,0.005-0.174,0.006c-3.241,0.059-6.481,0.123-9.722,0.175c-4.035,0.064-8.069,0.119-12.104,0.178
			c-0.195,0.003-0.391,0.001-0.707,0.001c0.501-1.006,0.966-1.903,1.4-2.814c0.693-1.453,1.364-2.917,2.049-4.374
			c0.989-2.102,1.985-4.199,2.973-6.301c1.069-2.275,2.119-4.561,3.204-6.829c0.921-1.925,1.897-3.823,2.819-5.748
			c1.052-2.194,2.065-4.407,3.106-6.606c1.076-2.274,2.161-4.545,3.251-6.813c0.936-1.948,1.896-3.884,2.822-5.835
			c1.032-2.173,2.03-4.362,3.059-6.537c0.912-1.929,1.845-3.848,2.77-5.771c1.044-2.169,2.098-4.333,3.133-6.505
			c1.082-2.271,2.134-4.557,3.223-6.824c0.983-2.047,2.014-4.071,2.998-6.118c1.005-2.093,1.978-4.202,2.965-6.303
			c1.07-2.276,2.136-4.556,3.214-6.828c0.937-1.975,1.894-3.941,2.834-5.915c1.012-2.122,2.004-4.252,3.025-6.369
			c0.916-1.9,1.875-3.779,2.787-5.681c1.133-2.365,2.238-4.743,3.355-7.116c1.013-2.15,2.013-4.307,3.042-6.45
			c1.031-2.147,2.09-4.28,3.137-6.42c0.12,0.01,0.319-0.02,0.347,0.036c0.781,1.564,1.536,3.14,2.314,4.705
			c0.259,0.52,0.602,0.999,0.848,1.523c0.752,1.604,1.441,3.238,2.218,4.829c0.759,1.554,1.617,3.059,2.393,4.605
			c1.311,2.618,2.587,5.254,3.885,7.878c0.996,2.013,2.005,4.019,3.006,6.029c1.001,2.009,1.995,4.022,3,6.03
			c0.993,1.985,1.998,3.963,2.993,5.947c1.007,2.008,2.014,4.017,3.008,6.031c1.006,2.037,1.992,4.083,2.996,6.12
			c1.113,2.259,2.229,4.517,3.358,6.768c0.811,1.616,1.66,3.213,2.466,4.832c1.171,2.353,2.306,4.724,3.481,7.074
			c0.859,1.717,1.779,3.405,2.636,5.123c1.099,2.205,2.145,4.436,3.245,6.639c0.858,1.719,1.787,3.401,2.646,5.12
			c1.196,2.398,2.351,4.818,3.534,7.224c0.991,2.015,1.992,4.024,2.998,6.032c0.994,1.984,2.006,3.962,3.001,5.946
			c1.006,2.007,2,4.02,3.003,6.028c0.991,1.985,1.985,3.968,2.979,5.951c1.007,2.009,2.009,4.021,3.024,6.025
			c0.337,0.665,0.71,1.312,1.09,2.012c-2.399,0-4.718,0.021-7.036-0.005c-3.477-0.04-6.954-0.103-10.431-0.177
			c-1.389-0.029-2.778-0.093-4.163-0.192c-0.225-0.016-0.531-0.254-0.628-0.467c-0.834-1.839-1.615-3.7-2.437-5.544
			c-0.956-2.147-1.93-4.288-2.91-6.424c-1.017-2.214-2.059-4.416-3.075-6.63c-0.981-2.136-1.924-4.29-2.923-6.418
			c-0.538-1.147-1.129-2.272-1.765-3.368c-0.134-0.232-0.564-0.413-0.859-0.414C117.309,122.816,107.836,122.819,98.363,122.819z
			 M98.363,66.156c-0.069,0.103-0.154,0.199-0.205,0.311c-0.875,1.91-1.759,3.816-2.615,5.734c-1.013,2.267-1.993,4.548-3.001,6.817
			c-1.409,3.168-2.826,6.333-4.248,9.495c-0.695,1.546-1.422,3.078-2.114,4.625c-0.968,2.167-1.929,4.338-2.87,6.518
			c-0.83,1.921-1.629,3.855-2.476,5.864c5.902,0,11.715,0,17.529,0c6.986,0,13.97,0,21.133,0c-0.993-1.834-1.959-3.56-2.87-5.314
			c-1.034-1.993-2.015-4.014-3.027-6.019c-1.013-2.004-2.037-4.004-3.056-6.005c-1.057-2.076-2.107-4.155-3.169-6.228
			c-1-1.952-2.026-3.891-3.01-5.85c-1.018-2.028-2.003-4.072-2.993-6.114c-0.656-1.35-1.291-2.709-1.948-4.058
			c-0.133-0.273-0.326-0.518-0.491-0.775c-0.19,0.304-0.38,0.607-0.567,0.912C98.352,66.09,98.363,66.127,98.363,66.156z"/>
		<path fill-rule="evenodd" clip-rule="evenodd" fill="#B53032" d="M98.363,66.156c0-0.029-0.011-0.066,0.002-0.087
			c0.187-0.305,0.377-0.608,0.567-0.912c0.165,0.258,0.357,0.502,0.491,0.775c0.657,1.349,1.292,2.708,1.948,4.058
			c0.99,2.042,1.976,4.086,2.993,6.114c0.983,1.959,2.01,3.898,3.01,5.85c1.062,2.073,2.112,4.152,3.169,6.228
			c1.019,2.001,2.043,4.001,3.056,6.005c1.013,2.005,1.993,4.026,3.027,6.019c0.911,1.754,1.877,3.48,2.87,5.314
			c-7.163,0-14.147,0-21.133,0C98.363,92.399,98.363,79.278,98.363,66.156z"/>
		<path fill-rule="evenodd" clip-rule="evenodd" fill="#E33338" d="M98.363,66.156c0,13.122,0,26.243,0,39.364
			c-5.814,0-11.627,0-17.529,0c0.847-2.009,1.646-3.942,2.476-5.864c0.941-2.179,1.902-4.35,2.87-6.518
			c0.691-1.548,1.418-3.08,2.114-4.625c1.422-3.162,2.839-6.327,4.248-9.495c1.008-2.269,1.989-4.55,3.001-6.817
			c0.856-1.918,1.74-3.824,2.615-5.734C98.209,66.355,98.294,66.259,98.363,66.156z"/>
	</g>
</g>
<g display="none">
	<path display="inline" fill-rule="evenodd" clip-rule="evenodd" fill="#305CA8" d="M179.193,200.307
		c-0.014-0.127-0.087-0.181-0.211-0.177c-0.188,0.006-0.375,0.016-0.563,0.015c-9.816-0.053-19.642,0.124-29.445-0.254
		c-5.207-0.201-10.41,0.055-15.602-0.261c-3.182-0.193-6.356-0.071-9.533-0.122c-7.047-0.113-14.106,0.054-21.138-0.266
		c-5.209-0.237-10.41,0.042-15.604-0.246c-4.926-0.272-9.854,0.052-14.772-0.167c-5.329-0.236-10.659,0.028-15.981-0.176
		c-1.916-0.073-3.829-0.047-5.742-0.126c-0.152-0.007-0.436,0.139-0.42-0.181c0.011-0.229,0.25-0.111,0.389-0.136
		c0.971-0.171,2.013-0.097,2.919-0.374c1.548-0.474,3.142-0.49,4.703-0.709c1.272-0.179,2.516-0.601,3.833-0.548
		c1.026,0.04,1.987-0.439,3.027-0.514c0.701-0.049,1.429-0.174,2.139-0.247c0.673-0.068,1.414-0.058,2.013-0.242
		c1.385-0.427,2.833-0.283,4.187-0.632c1.869-0.48,3.804-0.387,5.645-0.817c1.449-0.34,2.942-0.263,4.341-0.637
		c1.87-0.501,3.807-0.381,5.646-0.816c1.423-0.337,2.89-0.251,4.263-0.631c1.866-0.517,3.805-0.381,5.645-0.821
		c1.079-0.258,2.166-0.399,3.243-0.533c1.253-0.155,2.463-0.548,3.743-0.564c1.006-0.014,2.061-0.095,2.999-0.357
		c1.42-0.396,2.909-0.218,4.261-0.64c1.552-0.484,3.144-0.483,4.704-0.709c1.271-0.183,2.521-0.541,3.832-0.567
		c1.056-0.021,2.106-0.348,3.156-0.559c0.584-0.117,1.185-0.104,1.771-0.166c0.697-0.073,1.45-0.082,2.096-0.252
		c1.466-0.386,3-0.283,4.418-0.66c1.347-0.357,2.7-0.339,4.035-0.586c1.127-0.21,2.256-0.416,3.382-0.637
		c0.484-0.095,0.994-0.087,1.467-0.115c1.248-0.073,2.408-0.646,3.674-0.552c0.287,0.021,0.586-0.118,1.018-0.215
		c-0.771-0.732-1.162-1.621-1.72-2.404c-1.001-1.407-1.951-2.852-2.914-4.286c-1.811-2.697-3.606-5.405-5.425-8.097
		c-1.055-1.561-2.107-3.122-3.177-4.672c-1.023-1.483-2.004-2.998-3.019-4.489c-0.809-1.188-1.573-2.418-2.388-3.605
		c-1.596-2.326-3.082-4.725-4.719-7.025c-1.06-1.489-2.06-3.026-3.068-4.551c-1.088-1.643-2.187-3.283-3.251-4.943
		c-1.208-1.883-2.511-3.704-3.763-5.558c-0.979-1.45-1.939-2.915-2.92-4.365c-1.039-1.538-2.107-3.057-3.139-4.6
		c-1.507-2.256-2.987-4.528-4.49-6.787c-0.857-1.291-1.736-2.567-2.604-3.852c-1.011-1.493-2.043-2.973-3.022-4.486
		c-0.679-1.048-1.31-2.125-2.107-3.091c-0.472-0.572-0.22-1.171,0.005-1.738c0.825-2.086,1.766-4.131,2.489-6.25
		c1.845-5.402,4.075-10.655,6.092-15.99c1.726-4.565,3.604-9.077,5.308-13.651c1.364-3.666,2.848-7.284,4.175-10.964
		c0.946-2.623,2.04-5.193,3.052-7.793c1.139-2.925,2.262-5.855,3.388-8.785c1.197-3.116,2.391-6.233,3.584-9.35
		c0.313-0.814,0.615-1.631,0.936-2.441c0.07-0.178,0.176-0.448,0.306-0.474c0.254-0.051,0.265,0.275,0.335,0.434
		c0.777,1.751,1.521,3.517,2.291,5.271c1.39,3.17,2.779,6.34,4.188,9.502c0.974,2.186,1.991,4.352,2.966,6.537
		c1.166,2.615,2.301,5.244,3.461,7.862c0.979,2.209,1.979,4.409,2.962,6.617c1.184,2.662,2.344,5.335,3.536,7.992
		c1.204,2.683,2.415,5.365,3.609,8.053c1.162,2.616,2.297,5.246,3.47,7.854c1.114,2.478,2.224,4.959,3.353,7.432
		c1.405,3.08,2.714,6.204,4.091,9.297c0.983,2.21,2.083,4.37,2.997,6.606c0.744,1.819,1.555,3.61,2.326,5.414
		c0.919,2.151,1.961,4.259,2.91,6.401c1.129,2.55,2.244,5.107,3.375,7.654c1.183,2.665,2.383,5.323,3.567,7.987
		c1.173,2.64,2.349,5.277,3.501,7.926c1.014,2.329,2.035,4.655,3.074,6.973c0.866,1.933,1.728,3.866,2.583,5.803
		c0.854,1.937,1.727,3.866,2.579,5.805c0.853,1.938,1.725,3.866,2.58,5.804c0.854,1.937,1.687,3.888,2.583,5.802
		c1.239,2.643,2.341,5.344,3.577,7.983c0.931,1.986,1.802,3.997,2.684,6.004c0.971,2.214,1.971,4.414,2.993,6.604
		c0.076,0.163-0.107,0.47,0.232,0.505c0,0.107,0,0.215,0,0.322C193.172,200.307,186.183,200.307,179.193,200.307z"/>
	<path display="inline" fill-rule="evenodd" clip-rule="evenodd" fill="#305CA8" d="M0.161,181.919
		c0.806-1.751,1.603-3.508,2.421-5.254c0.772-1.647,1.617-3.264,2.341-4.933c0.745-1.716,1.577-3.39,2.331-5.1
		c0.715-1.62,1.51-3.201,2.232-4.815c0.59-1.318,1.202-2.627,1.81-3.937c0.775-1.673,1.512-3.361,2.313-5.023
		c0.646-1.343,1.246-2.717,1.863-4.078c0.761-1.678,1.527-3.354,2.295-5.028c0.581-1.269,1.171-2.533,1.751-3.802
		c0.736-1.608,1.458-3.223,2.203-4.826c0.599-1.289,1.236-2.561,1.832-3.852c0.833-1.809,1.644-3.628,2.462-5.442
		c0.747-1.657,1.419-3.353,2.256-4.962c1.062-2.039,1.895-4.18,2.933-6.229c0.866-1.707,1.552-3.505,2.347-5.249
		c0.692-1.52,1.439-3.014,2.138-4.53c0.761-1.65,1.477-3.321,2.246-4.968c0.971-2.079,2.011-4.126,2.952-6.218
		c0.553-1.228,1.094-2.459,1.689-3.67c0.888-1.809,1.677-3.666,2.506-5.504c0.941-2.088,1.833-4.2,2.831-6.26
		c0.848-1.75,1.561-3.566,2.478-5.275c0.46-0.858,1.248-1.547,1.918-2.285c0.524-0.578,1.104-1.104,1.644-1.669
		c0.882-0.923,1.761-1.85,2.622-2.792c0.799-0.874,1.516-1.83,2.372-2.642c0.864-0.818,1.651-1.713,2.459-2.573
		c0.936-0.997,1.868-2.01,2.786-3.029c1.035-1.15,2.071-2.299,3.183-3.382c0.846-0.824,1.569-1.773,2.369-2.645
		c0.919-1.002,1.911-1.941,2.781-2.982c0.745-0.891,1.59-1.686,2.348-2.565c0.702-0.815,1.49-1.574,2.22-2.377
		c0.564-0.62,1.158-1.213,1.732-1.824c0.804-0.854,1.602-1.713,2.404-2.569c0.817-0.873,1.636-1.745,2.455-2.616
		c0.819-0.872,1.677-1.711,2.447-2.624c0.498-0.589,1.018-1.148,1.553-1.7c0.85-0.879,1.702-1.758,2.511-2.675
		c0.671-0.76,1.368-1.494,2.067-2.228c1.094-1.148,2.131-2.349,3.209-3.512c1.575-1.698,3.167-3.38,4.746-5.074
		c1.356-1.455,2.738-2.887,4.047-4.385c1.427-1.633,2.94-3.187,4.396-4.791c1.417-1.561,2.865-3.108,4.353-4.612
		c1.261-1.275,2.405-2.665,3.614-3.992c0.534-0.587,1.195-1.058,1.601-1.762c0.107,0,0.215,0,0.323,0
		c-0.149,1.04-0.775,1.889-1.137,2.845c-0.597,1.583-1.266,3.144-1.959,4.681c-1.035,2.296-1.956,4.639-3.009,6.927
		c-1.165,2.531-2.165,5.137-3.255,7.703c-1.051,2.476-2.157,4.928-3.171,7.419c-0.469,1.152-0.982,2.285-1.426,3.45
		c-0.717,1.883-1.668,3.676-2.418,5.548c-1.017,2.542-2.09,5.062-3.173,7.573c-1.045,2.424-2.051,4.868-3.132,7.279
		c-0.824,1.838-1.516,3.736-2.324,5.582c-0.949,2.167-1.861,4.347-2.776,6.528c-1.213,2.893-2.471,5.767-3.697,8.655
		c-1.1,2.59-2.266,5.157-3.348,7.755c-1.024,2.458-2.117,4.887-3.095,7.366c-0.923,2.34-2.053,4.597-3.038,6.913
		c-1.11,2.609-2.07,5.286-3.262,7.856c-1.112,2.399-2.101,4.85-3.14,7.277c-0.792,1.85-1.599,3.697-2.348,5.569
		c-0.749,1.868-1.587,3.71-2.385,5.563c-0.768,1.784-1.498,3.584-2.262,5.369c-1.068,2.496-2.188,4.97-3.217,7.482
		c-0.754,1.841-1.557,3.663-2.313,5.503c-0.728,1.771-1.519,3.524-2.28,5.286c-1.135,2.627-2.229,5.272-3.337,7.91
		c-1.225,2.915-2.456,5.828-3.712,8.729c-0.912,2.104-1.803,4.217-2.717,6.32c-1.152,2.648-2.266,5.313-3.384,7.977
		c-0.063,0.151-0.111,0.201-0.269,0.196c-1.232-0.036-2.457,0.144-3.652,0.354c-1.345,0.237-2.706,0.321-4.042,0.581
		c-0.542,0.105-1.092,0.067-1.631,0.116c-1.315,0.119-2.578,0.579-3.904,0.554c-0.738-0.015-1.519,0.034-2.178,0.218
		c-1.6,0.445-3.231,0.378-4.838,0.604c-2.094,0.296-4.204,0.529-6.282,0.866c-2.126,0.344-4.284,0.359-6.375,0.781
		c-1.663,0.336-3.368,0.277-4.983,0.653c-1.638,0.382-3.275,0.434-4.918,0.592C0.161,182.135,0.161,182.027,0.161,181.919z"/>
	<path display="inline" fill-rule="evenodd" clip-rule="evenodd" fill="#FFFFFF" d="M179.193,200.307c6.989,0,13.979,0,20.968,0
		c-0.035,0.05,0.082,0.168-0.08,0.163c-0.215-0.007-0.431-0.002-0.646-0.002c-66.183,0-132.366,0-198.548-0.01
		c-0.236,0-0.547,0.186-0.726-0.151C59.839,200.307,119.517,200.307,179.193,200.307z"/>
</g>
<g display="none">
	<g display="inline">
		<path fill-rule="evenodd" clip-rule="evenodd" fill="#DF4C36" d="M102.639,200.305c-1.556,0-3.111,0-4.667,0
			c-4.637-1.435-7.753-4.895-11.034-8.18c-26.132-26.17-52.284-52.32-78.453-78.453c-3.286-3.281-6.744-6.397-8.18-11.033
			c0-1.667,0-3.333,0-5c1.237-2.181,2.07-4.763,3.773-6.483c19.58-19.773,39.298-39.411,58.95-59.113
			c0.793-0.795,1.175-0.711,1.91,0.03C71.862,39.051,78.818,46,85.79,52.932c0.627,0.623,0.91,1.122,0.542,2.039
			c-0.828,2.066-1.023,4.176-0.75,6.455c0.641,5.36,3.472,9.163,7.946,11.801c1.109,0.654,1.473,1.191,1.47,2.414
			c-0.038,17.163-0.045,34.327,0.013,51.49c0.004,1.313-0.431,1.958-1.528,2.519c-5.445,2.782-7.899,7.599-8.062,13.39
			c-0.091,3.234,0.981,6.409,3.169,9.178c3.006,3.803,6.863,5.8,11.529,6.034c5.1,0.257,9.308-1.729,12.594-5.796
			c2.849-3.526,3.871-7.596,3.198-11.825c-0.731-4.603-3.29-8.36-7.36-10.935c-0.432-0.273-0.874-0.938-0.875-1.424
			c-0.045-17.616-0.037-35.233-0.037-52.888c0.181,0.07,0.302,0.082,0.368,0.148c6.487,6.474,12.98,12.941,19.424,19.458
			c0.338,0.341,0.453,1.172,0.312,1.673c-0.747,2.657-1.112,5.417-0.397,8.021c1.85,6.737,6.587,11.094,13.254,11.878
			c5.42,0.637,10.045-1.26,13.645-5.637c4.283-5.207,4.432-12.66,1.006-17.81c-3.253-4.89-9.747-8.573-16.591-6.49
			c-0.807,0.245-1.462,0.131-2.164-0.581c-6.161-6.249-12.36-12.461-18.608-18.625c-1.642-1.62-3.463-3.04-1.913-5.675
			c0.023-0.041-0.006-0.109-0.002-0.164c0.275-4.601-0.702-8.751-4.047-12.184c-4.241-4.352-9.258-5.946-15.141-4.384
			c-0.87,0.231-1.222,0.065-1.748-0.462c-7.098-7.12-14.194-14.242-21.341-21.312c-0.83-0.82-0.65-1.205,0.062-1.911
			c5.759-5.709,11.461-11.477,17.239-17.167c0.924-0.909,2.089-1.615,3.237-2.242c1.187-0.648,2.489-1.085,3.741-1.614
			c0.333,0,0.667,0,1,0c0.778,0,1.556,0,2.333,0c0.334,0,0.667,0,1,0c0.146,0.116,0.276,0.309,0.438,0.338
			c2.807,0.507,5.066,2.016,7.025,3.973c28.754,28.73,57.5,57.468,86.207,86.246c1.207,1.21,2.083,2.78,2.972,4.268
			c0.585,0.979,0.915,2.111,1.358,3.175c0,0.333,0,0.667,0,1c0,0.777,0,1.556,0,2.333c0,0.444,0,0.889,0,1.333
			c-0.206,0.275-0.541,0.527-0.598,0.83c-0.501,2.681-2.09,4.689-3.943,6.543c-27.49,27.492-54.993,54.973-82.458,82.489
			C110.174,195.972,107.135,199.156,102.639,200.305z"/>
		<path fill-rule="evenodd" clip-rule="evenodd" fill="none" d="M97.972,0.305c-1.251,0.529-2.554,0.966-3.741,1.614
			c-1.148,0.627-2.313,1.333-3.237,2.242c-5.778,5.69-11.479,11.458-17.239,17.167c-0.712,0.706-0.892,1.09-0.062,1.911
			c7.147,7.069,14.244,14.191,21.341,21.312c0.526,0.528,0.878,0.693,1.748,0.462c5.883-1.562,10.9,0.032,15.141,4.384
			c3.345,3.433,4.322,7.583,4.047,12.184c-0.004,0.055,0.025,0.124,0.002,0.164c-1.55,2.636,0.271,4.056,1.913,5.675
			c6.248,6.164,12.447,12.376,18.608,18.625c0.702,0.712,1.357,0.826,2.164,0.581c6.844-2.083,13.338,1.601,16.591,6.49
			c3.426,5.15,3.277,12.603-1.006,17.81c-3.6,4.377-8.225,6.273-13.645,5.637c-6.667-0.784-11.404-5.141-13.254-11.878
			c-0.715-2.604-0.35-5.364,0.397-8.021c0.142-0.501,0.026-1.332-0.312-1.673c-6.443-6.518-12.937-12.985-19.424-19.458
			c-0.066-0.067-0.188-0.079-0.368-0.148c0,17.655-0.008,35.272,0.037,52.888c0.001,0.485,0.443,1.15,0.875,1.424
			c4.07,2.574,6.629,6.332,7.36,10.935c0.673,4.229-0.35,8.299-3.198,11.825c-3.286,4.067-7.494,6.053-12.594,5.796
			c-4.666-0.234-8.523-2.231-11.529-6.034c-2.188-2.769-3.26-5.943-3.169-9.178c0.163-5.791,2.617-10.607,8.062-13.39
			c1.097-0.561,1.533-1.206,1.528-2.519c-0.058-17.163-0.051-34.327-0.013-51.49c0.003-1.223-0.36-1.76-1.47-2.414
			c-4.475-2.638-7.306-6.44-7.946-11.801c-0.273-2.279-0.077-4.389,0.75-6.455c0.368-0.917,0.084-1.416-0.542-2.039
			C78.818,46,71.862,39.051,64.938,32.072c-0.734-0.741-1.117-0.825-1.91-0.03c-19.652,19.702-39.37,39.339-58.95,59.113
			c-1.703,1.72-2.536,4.302-3.773,6.483c0-31.973,0.008-63.945-0.033-95.918C0.271,0.519,0.52,0.271,1.721,0.272
			C33.804,0.313,65.888,0.305,97.972,0.305z"/>
		<path fill-rule="evenodd" clip-rule="evenodd" fill="none" d="M200.305,98.305c-0.443-1.063-0.773-2.196-1.358-3.175
			c-0.889-1.487-1.765-3.058-2.972-4.268c-28.707-28.778-57.453-57.516-86.207-86.246c-1.959-1.958-4.219-3.466-7.025-3.973
			c-0.161-0.029-0.292-0.222-0.438-0.338c32.223,0,64.444,0.008,96.667-0.032c1.142-0.001,1.366,0.224,1.365,1.365
			C200.297,33.861,200.305,66.083,200.305,98.305z"/>
		<path fill-rule="evenodd" clip-rule="evenodd" fill="none" d="M0.305,102.639c1.436,4.636,4.894,7.752,8.18,11.033
			c26.169,26.133,52.32,52.283,78.453,78.453c3.281,3.285,6.397,6.745,11.034,8.18c-32.083,0-64.167-0.008-96.251,0.033
			c-1.202,0.001-1.45-0.247-1.448-1.448C0.313,166.806,0.305,134.722,0.305,102.639z"/>
		<path fill-rule="evenodd" clip-rule="evenodd" fill="none" d="M102.639,200.305c4.496-1.148,7.535-4.333,10.667-7.471
			c27.465-27.517,54.968-54.997,82.458-82.489c1.854-1.854,3.442-3.862,3.943-6.543c0.057-0.303,0.392-0.555,0.598-0.83
			c0,31.973-0.008,63.945,0.033,95.918c0.001,1.202-0.248,1.449-1.448,1.448C166.806,200.297,134.722,200.305,102.639,200.305z"/>
		<path fill-rule="evenodd" clip-rule="evenodd" fill="#E67155" d="M101.305,0.305c-0.777,0-1.555,0-2.333,0
			C99.75,0.305,100.527,0.305,101.305,0.305z"/>
		<path fill-rule="evenodd" clip-rule="evenodd" fill="#E67256" d="M200.305,101.639c0-0.778,0-1.556,0-2.333
			C200.305,100.083,200.305,100.861,200.305,101.639z"/>
	</g>
</g>
<g display="none">
	<g display="inline">
		<path fill-rule="evenodd" clip-rule="evenodd" fill="none" d="M200.449,100.441c0,32.74-0.01,65.479,0.033,98.218
			c0.002,1.404-0.221,1.833-1.758,1.832c-65.544-0.049-131.088-0.049-196.632-0.001c-1.454,0.001-1.678-0.354-1.678-1.717
			C0.454,133.229,0.453,67.685,0.418,2.141c0-1.318,0.159-1.738,1.658-1.736c65.609,0.051,131.218,0.05,196.827,0.005
			c1.371-0.001,1.583,0.316,1.581,1.618C200.439,34.832,200.449,67.636,200.449,100.441z M116.074,11.777
			c-0.391,0.391-0.781,0.781-1.172,1.172c-0.913,1.451-1.891,2.865-2.728,4.358c-3.298,5.885-4.525,12.218-4.35,18.946
			c0.132,5.024,1.187,9.822,3.217,14.323c3.566,7.905,8.74,14.577,15.765,19.851c8.431,6.33,17.806,9.846,28.309,10.028
			c3.544,0.062,7.12-0.601,10.651-1.131c6.73-1.011,12.488-4.114,17.196-8.941c2.433-2.495,4.381-5.461,6.549-8.215
			c0.432-0.574,0.863-1.149,1.296-1.723c-0.105-0.084-0.21-0.167-0.315-0.251c-0.457,0.528-0.914,1.056-1.371,1.583
			c-0.261,0.261-0.521,0.521-0.781,0.781c-0.651,0.521-1.302,1.042-1.953,1.563c-0.359,0.26-0.699,0.554-1.081,0.776
			c-5.104,2.965-10.561,4.932-16.49,5.026c-3.47,0.056-6.952-0.428-10.424-0.73c-5.539-0.482-10.75-2.221-15.653-4.708
			c-5.927-3.005-11.236-6.851-15.567-12.042c-3.938-4.719-7.15-9.764-9.279-15.553c-2.311-6.281-3.198-12.67-2.195-19.296
			c0.196-1.296,0.509-2.576,0.769-3.863c0.391-1.172,0.781-2.344,1.172-3.516c0.312-0.445,0.623-0.89,0.936-1.335
			c-0.114-0.083-0.229-0.165-0.342-0.248c-0.328,0.397-0.656,0.794-0.984,1.192C116.855,10.475,116.465,11.126,116.074,11.777z
			 M76.23,19.589c-0.651,0.912-1.302,1.823-1.953,2.734c-0.26,0.521-0.521,1.042-0.781,1.563c-0.391,0.391-0.781,0.781-1.172,1.172
			c-0.601,0.926-1.132,1.908-1.814,2.77c-6.263,7.896-9.669,17.031-10.558,26.907c-0.624,6.929-0.288,13.933,1.375,20.854
			c2.68,11.155,7.831,21.073,15.079,29.746c6.383,7.638,14.057,14.017,22.798,18.958c10.811,6.112,22.434,9.255,34.854,9.339
			c2.485,0.017,4.983-0.133,7.456-0.393c4.217-0.445,8.505-0.677,12.605-1.656c5.703-1.363,11.174-3.475,16.364-6.359
			c7.645-4.248,13.881-10.01,19.104-16.908c1.759-2.324,3.087-4.974,4.611-7.475c0.521-0.912,1.042-1.823,1.563-2.735
			c0-0.13,0-0.26,0-0.391c0.405-0.847,0.812-1.694,1.217-2.542c-0.176-0.091-0.353-0.183-0.528-0.274
			c-0.751,1.069-1.501,2.138-2.251,3.207c-0.391,0.391-0.781,0.782-1.172,1.172c-0.781,0.781-1.563,1.563-2.344,2.344
			c-4.975,4.021-10.134,7.665-16.102,10.216c-6.633,2.835-13.516,4.438-20.61,4.944c-6.45,0.459-12.89-0.087-19.275-1.441
			c-6.089-1.291-11.928-3.202-17.553-5.813c-6.028-2.798-11.842-6.018-16.731-10.549c-4.804-4.452-9.64-8.952-13.832-13.958
			c-4.371-5.219-7.757-11.238-10.016-17.708c-1.696-4.858-3.309-9.835-4.104-14.893c-0.753-4.792-0.447-9.759-0.491-14.65
			c-0.011-1.274,0.38-2.559,0.644-3.827c0.534-2.575,1.107-5.142,1.664-7.712c0.261-0.651,0.521-1.302,0.781-1.953
			c0.13-0.521,0.261-1.042,0.391-1.563c0.391-0.912,0.781-1.823,1.172-2.734c0.22-0.355,0.438-0.71,0.658-1.065
			C76.929,19.14,76.58,19.365,76.23,19.589z M26.23,37.167c-0.651,0.912-1.302,1.823-1.953,2.734
			c-0.391,0.521-0.781,1.042-1.172,1.563c-1.588,1.914-3.138,3.861-4.772,5.735c-4.769,5.468-8.084,11.768-10.663,18.493
			c-2.525,6.588-3.977,13.46-4.403,20.453c-0.391,6.417-0.335,12.892,1.086,19.246c0.895,4.002,1.629,8.047,2.709,11.998
			c2.26,8.273,5.82,16.002,10.167,23.39c4.101,6.97,8.917,13.43,14.541,19.188c4.308,4.41,9.055,8.424,13.836,12.335
			c8.812,7.207,18.912,12.232,29.418,16.416c9.228,3.676,19.011,4.882,28.829,5.408c7.005,0.376,14.063,0.292,21.004-1.113
			c4.862-0.984,9.768-1.84,14.542-3.156c8.117-2.237,15.634-5.969,22.589-10.642c6.503-4.368,12.281-9.635,17.386-15.646
			c4.996-5.883,9.39-12.104,12.236-19.405c-0.592,0.321-1.059,0.787-1.543,1.233c-3.676,3.383-7.108,7.091-11.086,10.07
			c-6.992,5.237-14.872,8.924-23.277,11.338c-7.111,2.042-14.387,3.359-21.796,3.531c-8.155,0.189-16.328,0.262-24.365-1.535
			c-4.709-1.053-9.51-1.845-14.082-3.333c-7.886-2.568-15.401-6.072-22.536-10.34c-6.822-4.08-13.2-8.8-18.908-14.304
			c-4.182-4.032-7.954-8.502-11.786-12.884c-4.598-5.259-8.24-11.199-11.252-17.458c-2.402-4.991-4.567-10.149-6.25-15.422
			c-2.558-8.016-4.116-16.275-3.96-24.76c0.073-3.984-0.063-8.006,0.447-11.939c0.549-4.235,1.646-8.412,2.692-12.566
			c0.573-2.276,1.535-4.454,2.321-6.677c0.26-0.521,0.521-1.042,0.781-1.563c0-0.13,0-0.26,0-0.391
			c0.245-0.351,0.489-0.702,0.734-1.053c-0.129-0.088-0.259-0.175-0.388-0.263C26.981,36.29,26.605,36.729,26.23,37.167z"/>
		<path fill-rule="evenodd" clip-rule="evenodd" fill="#0A69AD" d="M24.277,39.902c0.651-0.912,1.302-1.823,1.953-2.734
			c0.26,0,0.521,0,0.781,0c0,0.13,0,0.26,0,0.391c-0.26,0.521-0.521,1.042-0.781,1.563c-0.786,2.223-1.748,4.4-2.321,6.677
			c-1.046,4.154-2.144,8.331-2.692,12.566c-0.509,3.933-0.374,7.955-0.447,11.939c-0.156,8.485,1.402,16.744,3.96,24.76
			c1.683,5.272,3.848,10.431,6.25,15.422c3.012,6.259,6.655,12.199,11.252,17.458c3.832,4.382,7.604,8.852,11.786,12.884
			c5.708,5.504,12.086,10.224,18.908,14.304c7.135,4.268,14.65,7.771,22.536,10.34c4.571,1.488,9.373,2.28,14.082,3.333
			c8.037,1.797,16.21,1.725,24.365,1.535c7.409-0.172,14.685-1.489,21.796-3.531c8.405-2.414,16.285-6.101,23.277-11.338
			c3.978-2.979,7.41-6.688,11.086-10.07c0.484-0.446,0.951-0.912,1.543-1.233c-2.847,7.302-7.24,13.522-12.236,19.405
			c-5.104,6.011-10.883,11.277-17.386,15.646c-6.955,4.673-14.472,8.404-22.589,10.642c-4.774,1.316-9.68,2.172-14.542,3.156
			c-6.94,1.405-13.999,1.489-21.004,1.113c-9.817-0.526-19.601-1.732-28.829-5.408c-10.507-4.184-20.607-9.209-29.418-16.416
			c-4.781-3.911-9.528-7.925-13.836-12.335c-5.624-5.759-10.439-12.219-14.541-19.188c-4.347-7.388-7.907-15.116-10.167-23.39
			c-1.08-3.951-1.814-7.996-2.709-11.998c-1.421-6.354-1.478-12.829-1.086-19.246c0.426-6.993,1.878-13.865,4.403-20.453
			c2.578-6.725,5.894-13.024,10.663-18.493c1.634-1.874,3.184-3.821,4.772-5.735C23.496,40.944,23.886,40.423,24.277,39.902z"/>
		<path fill-rule="evenodd" clip-rule="evenodd" fill="#0A69AD" d="M193.027,99.277c0.391-0.391,0.781-0.781,1.172-1.172
			c0.521-0.13,1.042-0.26,1.563-0.391c0,0.13,0,0.261,0,0.391c-0.521,0.912-1.042,1.823-1.563,2.735
			c-1.524,2.501-2.853,5.15-4.611,7.475c-5.223,6.898-11.459,12.66-19.104,16.908c-5.19,2.885-10.661,4.996-16.364,6.359
			c-4.101,0.979-8.389,1.211-12.605,1.656c-2.473,0.26-4.971,0.409-7.456,0.393c-12.421-0.084-24.044-3.227-34.854-9.339
			c-8.741-4.941-16.416-11.32-22.798-18.958c-7.249-8.672-12.399-18.59-15.079-29.746c-1.663-6.921-1.999-13.925-1.375-20.854
			c0.889-9.875,4.294-19.01,10.558-26.907c0.683-0.861,1.213-1.843,1.814-2.77c0.391-0.391,0.781-0.781,1.172-1.172
			c0.261-0.521,0.521-1.042,0.781-1.563c0.391,0.13,0.781,0.26,1.172,0.391c-0.13,0.521-0.26,1.042-0.391,1.563
			c-0.788,0.352-1.107,1.148-0.781,1.953c-0.557,2.57-1.13,5.137-1.664,7.712c-0.263,1.268-0.655,2.553-0.644,3.827
			c0.043,4.891-0.263,9.857,0.491,14.65c0.796,5.058,2.408,10.034,4.104,14.893C78.823,73.782,82.209,79.8,86.58,85.02
			c4.192,5.006,9.028,9.505,13.832,13.958c4.89,4.532,10.703,7.751,16.731,10.549c5.625,2.611,11.464,4.522,17.553,5.813
			c6.386,1.354,12.825,1.9,19.275,1.441c7.095-0.506,13.978-2.109,20.61-4.944c5.968-2.551,11.127-6.194,16.102-10.216
			C191.465,100.84,192.246,100.059,193.027,99.277z"/>
		<path fill-rule="evenodd" clip-rule="evenodd" fill="#0A69AD" d="M188.34,62.558c0.261-0.26,0.521-0.521,0.781-0.781
			c0.13,0.13,0.261,0.261,0.391,0.391c-2.168,2.753-4.116,5.72-6.549,8.215c-4.708,4.828-10.466,7.93-17.196,8.941
			c-3.531,0.53-7.107,1.193-10.651,1.131c-10.503-0.183-19.878-3.698-28.309-10.028c-7.024-5.274-12.198-11.946-15.765-19.851
			c-2.03-4.501-3.085-9.298-3.217-14.323c-0.176-6.728,1.052-13.062,4.35-18.946c0.837-1.493,1.814-2.907,2.728-4.358
			c0.391-0.391,0.781-0.781,1.172-1.172c0.065,0.388,0.125,0.778,0.2,1.164c0.052,0.266,0.126,0.526,0.19,0.789
			c-0.26,1.287-0.572,2.566-0.769,3.863c-1.003,6.626-0.115,13.016,2.195,19.296c2.129,5.789,5.342,10.833,9.279,15.553
			c4.331,5.191,9.641,9.036,15.567,12.042c4.903,2.487,10.114,4.226,15.653,4.708c3.472,0.303,6.954,0.786,10.424,0.73
			c5.93-0.094,11.387-2.061,16.49-5.026c0.382-0.222,0.722-0.516,1.081-0.776C187.038,63.6,187.688,63.079,188.34,62.558z"/>
		<path fill-rule="evenodd" clip-rule="evenodd" fill="#1F6EB2" d="M195.762,97.714c-0.521,0.13-1.042,0.261-1.563,0.391
			c0.75-1.069,1.5-2.138,2.251-3.207c0.176,0.091,0.353,0.183,0.528,0.274C196.573,96.02,196.167,96.867,195.762,97.714z"/>
		<path fill-rule="evenodd" clip-rule="evenodd" fill="#2771B4" d="M75.449,22.714c-0.391-0.13-0.781-0.26-1.172-0.391
			c0.651-0.912,1.302-1.823,1.953-2.734c0.13,0.13,0.261,0.26,0.391,0.391C76.23,20.892,75.839,21.803,75.449,22.714z"/>
		<path fill-rule="evenodd" clip-rule="evenodd" fill="#2570B3" d="M116.465,13.73c-0.064-0.263-0.139-0.523-0.19-0.789
			c-0.075-0.386-0.135-0.776-0.2-1.164c0.391-0.651,0.781-1.302,1.172-1.953c0.13,0.13,0.261,0.26,0.391,0.391
			C117.246,11.386,116.855,12.558,116.465,13.73z"/>
		<path fill-rule="evenodd" clip-rule="evenodd" fill="#1F6EB2" d="M194.199,100.84c0.521-0.912,1.042-1.823,1.563-2.735
			C195.241,99.017,194.72,99.928,194.199,100.84z"/>
		<path fill-rule="evenodd" clip-rule="evenodd" fill="#1F6EB2" d="M193.027,99.277c-0.781,0.781-1.563,1.563-2.344,2.344
			C191.465,100.84,192.246,100.059,193.027,99.277z"/>
		<path fill-rule="evenodd" clip-rule="evenodd" fill="#2971B4" d="M189.512,62.167c-0.13-0.13-0.261-0.26-0.391-0.391
			c0.457-0.528,0.914-1.056,1.371-1.583c0.105,0.083,0.21,0.167,0.315,0.251C190.375,61.019,189.943,61.593,189.512,62.167z"/>
		<path fill-rule="evenodd" clip-rule="evenodd" fill="#2971B4" d="M188.34,62.558c-0.651,0.521-1.302,1.042-1.953,1.563
			C187.038,63.6,187.688,63.079,188.34,62.558z"/>
		<path fill-rule="evenodd" clip-rule="evenodd" fill="#2771B4" d="M74.277,26.23c-0.326-0.805-0.007-1.601,0.781-1.953
			C74.798,24.928,74.538,25.579,74.277,26.23z"/>
		<path fill-rule="evenodd" clip-rule="evenodd" fill="#2A71B5" d="M27.011,37.167c-0.26,0-0.521,0-0.781,0
			c0.375-0.438,0.751-0.877,1.127-1.316c0.129,0.087,0.259,0.175,0.388,0.263C27.5,36.465,27.256,36.816,27.011,37.167z"/>
		<path fill-rule="evenodd" clip-rule="evenodd" fill="#5D87C1" d="M117.637,10.214c-0.13-0.13-0.261-0.26-0.391-0.391
			c0.328-0.397,0.656-0.794,0.984-1.192c0.113,0.083,0.228,0.165,0.342,0.248C118.26,9.324,117.948,9.77,117.637,10.214z"/>
		<path fill-rule="evenodd" clip-rule="evenodd" fill="#2A71B5" d="M26.23,39.121c0.26-0.521,0.521-1.042,0.781-1.563
			C26.751,38.079,26.49,38.6,26.23,39.121z"/>
		<path fill-rule="evenodd" clip-rule="evenodd" fill="#2A71B5" d="M24.277,39.902c-0.391,0.521-0.781,1.042-1.172,1.563
			C23.496,40.944,23.886,40.423,24.277,39.902z"/>
		<path fill-rule="evenodd" clip-rule="evenodd" fill="#2570B3" d="M116.074,11.777c-0.391,0.391-0.781,0.781-1.172,1.172
			C115.293,12.558,115.684,12.167,116.074,11.777z"/>
		<path fill-rule="evenodd" clip-rule="evenodd" fill="#5C88C3" d="M76.621,19.98c-0.13-0.13-0.26-0.26-0.391-0.391
			c0.35-0.225,0.699-0.45,1.048-0.674C77.059,19.27,76.84,19.625,76.621,19.98z"/>
		<path fill-rule="evenodd" clip-rule="evenodd" fill="#2771B4" d="M73.496,23.886c-0.391,0.391-0.781,0.781-1.172,1.172
			C72.714,24.667,73.105,24.277,73.496,23.886z"/>
	</g>
</g>
<g>
	<g>
		<path fill-rule="evenodd" clip-rule="evenodd" fill="#F7DB3E" d="M-0.331,199.289c0-66.413,0-132.826,0-199.239
			c66.283,0,132.566-0.002,198.848,0.032c0.51,0,1.027-0.479,1.534-0.019c-0.006,66.276-0.001,132.552-0.003,198.827
			c0,0.127,0.002,0.254,0.012,0.38c-1.073,0.234-2.149,0.018-3.225,0.018c-60.084,0.002-120.168,0.001-180.252,0.001
			C10.946,199.289,5.308,199.289-0.331,199.289z"/>
		<path fill-rule="evenodd" clip-rule="evenodd" fill="#FBF6BE" d="M200.05,0.05c-0.114-0.063-0.232-0.186-0.341-0.177
			c-0.516,0.04-1.027,0.169-1.54,0.169C132.003,0.051,65.836,0.05-0.331,0.05c0.063-0.126,0.104-0.339,0.195-0.363
			C0.072-0.367,0.303-0.33,0.525-0.33c66.35,0,132.7,0,199.049,0.027c0.245,0,0.88-0.469,0.855,0.354
			C200.303,0.05,200.176,0.05,200.05,0.05z"/>
		<path fill-rule="evenodd" clip-rule="evenodd" fill="#FADF5C" d="M-0.331,199.289c65.818,0,131.636,0,197.454,0
			c0.976,0,1.951,0,2.927,0c0,0.127,0,0.254,0,0.381c-66.509,0-133.017,0-199.525-0.027C0.28,199.643-0.354,200.112-0.331,199.289z"
			/>
		<path fill-rule="evenodd" clip-rule="evenodd" fill="#FCF3A7" d="M200.05,199.67c0-0.127,0-0.254,0-0.381
			c0-66.413,0-132.826,0-199.239c0.126,0,0.253,0,0.38,0c0,66.254,0.001,132.509-0.027,198.764
			C200.402,199.06,200.872,199.693,200.05,199.67z"/>
		<path fill-rule="evenodd" clip-rule="evenodd" fill="#2F302D" d="M156.086,183.683c-1.146,0.069-2.302,0.266-3.437,0.184
			c-3.394-0.245-6.778-0.459-10.131-1.24c-3.484-0.812-6.819-1.919-9.898-3.703c-1.811-1.048-3.532-2.27-5.205-3.53
			c-2.518-1.898-4.475-4.348-6.311-6.881c-0.764-1.054-1.355-2.23-2.042-3.341c-0.27-0.436-0.001-0.673,0.304-0.85
			c2.046-1.186,4.103-2.353,6.155-3.527c2.67-1.528,5.353-3.036,7.997-4.606c0.497-0.295,0.637-0.317,0.964,0.202
			c1.508,2.39,3.282,4.583,5.438,6.413c2.226,1.891,4.831,3.072,7.663,3.8c2.31,0.593,4.657,0.706,6.993,0.527
			c3.358-0.258,6.514-1.178,8.889-3.796c1.13-1.247,1.8-2.695,2.002-4.412c0.486-4.13-1.398-7.069-4.76-9.022
			c-2.887-1.677-5.994-2.976-9.022-4.403c-2.1-0.989-4.211-1.96-6.353-2.854c-3.427-1.432-6.663-3.183-9.706-5.32
			c-4.88-3.428-8.338-7.912-10.066-13.622c-1.093-3.607-1.289-7.378-0.936-11.094c0.453-4.765,2.136-9.103,5.259-12.863
			c3.335-4.015,7.585-6.567,12.493-8c2.663-0.777,5.426-1.309,8.259-1.211c1.847,0.064,3.718-0.158,5.544,0.046
			c4.485,0.501,8.81,1.531,12.707,4.031c3.947,2.532,6.948,5.865,9.339,9.861c0.555,0.927,0.433,1.075-0.396,1.596
			c-4.372,2.743-8.682,5.587-13.019,8.387c-0.37,0.239-0.621,0.32-0.948-0.251c-1.409-2.455-3.12-4.7-5.675-6.056
			c-1.128-0.599-2.414-1.017-3.677-1.218c-2.07-0.329-4.146-0.26-6.172,0.522c-2.588,0.998-4.351,2.757-4.916,5.448
			c-0.751,3.581,0.156,6.627,3.207,8.969c2.27,1.742,4.848,2.843,7.391,4.03c4.549,2.125,9.175,4.089,13.673,6.314
			c3.16,1.564,6.069,3.564,8.668,6.003c2.032,1.906,3.817,3.989,5.079,6.466c1.045,2.052,1.814,4.212,2.276,6.49
			c0.586,2.886,0.701,5.801,0.515,8.705c-0.175,2.737-0.797,5.4-1.836,7.989c-1.363,3.396-3.501,6.181-6.188,8.562
			c-2.244,1.988-4.772,3.596-7.616,4.593c-2.253,0.79-4.54,1.522-6.864,2.054c-1.835,0.42-3.75,0.495-5.629,0.723
			C156.095,183.759,156.09,183.721,156.086,183.683z"/>
		<path fill-rule="evenodd" clip-rule="evenodd" fill="#2F302D" d="M108.415,159.365c-0.276,5.502-1.87,10.532-5.186,14.998
			c-2.078,2.799-4.745,4.859-7.803,6.405c-2.323,1.174-4.796,2.021-7.402,2.353c-1.85,0.235-3.706,0.466-5.566,0.558
			c-1.908,0.096-3.841,0.181-5.734-0.014c-3.618-0.371-7.112-1.233-10.458-2.788c-3.397-1.579-6.322-3.732-8.833-6.454
			c-2.021-2.191-3.602-4.708-4.895-7.396c-0.059-0.122,0.051-0.439,0.175-0.517c2.218-1.382,4.448-2.745,6.682-4.102
			c2.612-1.587,5.229-3.167,7.856-4.729c0.114-0.068,0.446,0.015,0.523,0.131c1.015,1.512,1.953,3.077,3.007,4.561
			c2.086,2.935,4.842,4.644,8.569,4.616c1.936-0.014,3.822-0.107,5.654-0.837c2.342-0.934,3.573-2.775,4.178-5.067
			c0.344-1.306,0.402-2.687,0.6-4.032c0.009-0.061,0.124-0.105,0.19-0.157c0.031,0.237-0.072,0.491,0.081,0.728
			c0.279-0.15,0.098-0.394,0.098-0.569c0.012-21.475,0.014-42.95-0.002-64.425c0-0.715,0.143-0.969,0.931-0.963
			c5.416,0.039,10.833,0.02,16.249,0.021c1.084,0,1.085,0.002,1.085,1.069C108.415,114.958,108.415,137.162,108.415,159.365z"/>
		<path fill-rule="evenodd" clip-rule="evenodd" fill="#3D3417" d="M108.415,159.365c0-22.235-0.007-44.472,0.022-66.708
			c0.001-0.845-0.216-0.998-1.015-0.992c-5.447,0.039-10.896,0.042-16.344-0.004c-0.823-0.007-0.935,0.229-0.934,0.978
			c0.028,21.665,0.029,43.331,0.033,64.996c0,0.061-0.03,0.12-0.205,0.189c0-0.311,0-0.62,0-0.93c0-21.8,0-43.6,0-65.399
			c6.21,0,12.421,0,18.631,0c0,22.352,0.001,44.702-0.008,67.054C108.597,158.821,108.478,159.094,108.415,159.365z"/>
		<path fill-rule="evenodd" clip-rule="evenodd" fill="#E5D789" d="M108.604,91.495c-6.21,0-12.42,0-18.631,0
			c-0.03-0.01-0.075-0.012-0.086-0.033c-0.024-0.041-0.029-0.091-0.042-0.138c0.083-0.009,0.166-0.025,0.249-0.025
			c6.13-0.001,12.259-0.001,18.389,0c0.083,0,0.167,0.016,0.25,0.025C108.69,91.381,108.647,91.438,108.604,91.495z"/>
	</g>
</g>
</svg>
