<?xml version="1.0" encoding="utf-8"?>
<!-- Generator: Adobe Illustrator 16.0.3, SVG Export Plug-In . SVG Version: 6.00 Build 0)  -->
<!DOCTYPE svg PUBLIC "-//W3C//DTD SVG 1.1//EN" "http://www.w3.org/Graphics/SVG/1.1/DTD/svg11.dtd">
<svg version="1.1" id="Capa_1" xmlns="http://www.w3.org/2000/svg" xmlns:xlink="http://www.w3.org/1999/xlink" x="0px" y="0px"
	 width="200px" height="200px" viewBox="0 0 200 200" enable-background="new 0 0 200 200" xml:space="preserve">
<g>
	<g>
		<path fill-rule="evenodd" clip-rule="evenodd" fill="none" d="M0.754,106.564c0-29.695,0-59.389-0.008-89.084
			c0-0.328,0.074-0.402,0.402-0.401c42.698,0.008,85.396,0.008,128.093,0.008c-0.175,0.087-0.342,0.214-0.527,0.255
			c-0.958,0.213-1.532,0.888-2,1.667c-0.474,0.789-0.773,1.635-0.898,2.567c-0.146,1.074-0.098,2.129,0.135,3.164
			c0.165,0.733,0.439,1.456,0.765,2.135c0.533,1.112,1.129,2.196,1.733,3.272c0.441,0.787,0.955,1.533,1.407,2.315
			c0.378,0.656,0.744,1.323,1.061,2.011c0.349,0.76,0.707,1.528,0.934,2.329c0.424,1.497,0.741,3.024,1.129,4.531
			c0.34,1.317,0.715,2.625,1.077,3.937c0.239,0.864,0.436,1.744,0.739,2.585c0.408,1.13,0.917,2.224,1.356,3.343
			c0.459,1.167,1.064,2.24,1.847,3.226c0.313,0.395,0.463,0.864,0.22,1.427c-0.241,0.556-0.365,1.17-0.484,1.769
			c-0.147,0.748-0.213,1.512-0.357,2.26c-0.245,1.268-0.564,2.523-0.774,3.796c-0.179,1.08-0.289,2.175-0.35,3.268
			c-0.059,1.052,0.003,2.11-0.018,3.164c-0.033,1.786,0.099,3.56,0.357,5.324c0.131,0.889,0.235,1.789,0.455,2.657
			c0.323,1.275,0.718,2.534,1.121,3.787c0.381,1.182,0.964,2.279,1.671,3.292c0.416,0.596,0.963,1.105,1.479,1.626
			c0.474,0.476,1.813,0.71,2.354,0.442c0.945-0.469,1.53-1.234,1.841-2.233c0.396-1.273,0.439-2.6,0.605-3.907
			c0.134-1.043,0.222-2.093,0.354-3.137c0.045-0.355,0.166-0.701,0.28-1.164c0.49,1.313,0.936,2.502,1.38,3.692
			c0.383,1.026,0.654,2.091,1.283,3.023c0.617,0.915,1.089,1.932,1.734,2.823c0.946,1.306,1.973,2.556,3.002,3.799
			c0.483,0.583,1.095,1.06,1.578,1.643c0.767,0.925,1.452,1.918,2.221,2.842c0.302,0.363,0.736,0.615,1.11,0.917
			c0.043-0.05,0.085-0.099,0.127-0.149c-0.365-0.4-0.75-0.785-1.091-1.205c-0.896-1.106-1.738-2.247-2.398-3.52
			c-0.495-0.955-1.124-1.841-1.614-2.798c-0.764-1.491-1.485-3.005-2.179-4.53c-0.648-1.425-1.278-2.862-1.843-4.322
			c-0.628-1.626-1.188-3.279-1.75-4.929c-0.395-1.154-0.753-2.32-1.109-3.486c-0.178-0.58-0.313-1.173-0.469-1.76
			c-0.053,0.004-0.105,0.009-0.158,0.013c-0.121,0.213-0.24,0.427-0.364,0.638c-0.354,0.6-0.718,1.193-1.062,1.798
			c-0.302,0.531-0.688,1.044-0.85,1.619c-0.386,1.367-0.708,2.757-0.963,4.154c-0.195,1.076-0.257,2.176-0.362,3.267
			c-0.1,1.028-0.199,2.056-0.255,3.086c-0.021,0.385-0.281,0.273-0.4,0.213c-0.773-0.389-1.311-1.068-1.603-1.823
			c-0.556-1.437-1.015-2.919-1.398-4.412c-0.278-1.083-0.411-2.21-0.533-3.326c-0.159-1.449-0.272-2.905-0.35-4.362
			c-0.039-0.728,0.037-1.463,0.078-2.194c0.048-0.866,0.086-1.734,0.179-2.596c0.114-1.052,0.209-2.114,0.439-3.143
			c0.467-2.08,1.22-4.085,1.498-6.22c0.145-1.109-0.034-2.11-0.692-2.93c-1.054-1.312-1.848-2.745-2.424-4.307
			c-0.43-1.167-0.837-2.348-1.179-3.543c-0.397-1.391-0.713-2.804-1.063-4.208c-0.175-0.702-0.348-1.403-0.521-2.105
			c-0.477-1.925-0.984-3.839-1.927-5.604c-0.498-0.933-0.98-1.874-1.491-2.8c-0.388-0.704-0.827-1.38-1.21-2.087
			c-0.478-0.88-0.948-1.765-1.369-2.672c-0.523-1.127-0.974-2.276-0.574-3.566c0.176-0.568,1.088-1.268,1.603-1.137
			c0.447,0.114,0.896,0.243,1.32,0.422c0.563,0.238,1.117,0.505,1.647,0.807c0.721,0.411,1.426,0.852,2.12,1.307
			c0.538,0.353,1.102,0.694,1.563,1.135c0.739,0.708,1.391,1.506,2.107,2.239c0.227,0.232,0.526,0.495,0.821,0.536
			c0.622,0.086,1.248,0.022,1.871,0.259c0.42,0.159,0.931,0.069,1.398,0.116c0.768,0.077,1.534,0.166,2.299,0.267
			c0.242,0.032,0.496,0.083,0.711,0.191c0.527,0.263,1.035,0.564,1.55,0.851c0.733,0.409,1.498,0.771,2.19,1.24
			c0.909,0.617,1.779,1.295,2.633,1.989c1.009,0.82,2.024,1.641,2.96,2.541c1.048,1.007,2.019,2.094,3.005,3.164
			c0.578,0.628,1.156,1.264,1.671,1.945c0.817,1.083,1.59,2.199,2.364,3.313c0.463,0.665,0.907,1.344,1.334,2.033
			c0.481,0.776,0.944,1.563,1.396,2.357c0.484,0.851,0.976,1.699,1.407,2.577c0.471,0.955,0.891,1.936,1.307,2.916
			c0.454,1.069,0.915,2.137,1.306,3.229c0.392,1.098,0.688,2.229,1.048,3.338c0.455,1.403,0.919,2.804,1.401,4.198
			c0.504,1.456,1.044,2.9,1.55,4.355c0.439,1.265,0.851,2.541,1.282,3.809c0.336,0.986,0.658,1.978,1.036,2.948
			c0.367,0.943,0.779,1.87,1.204,2.789c0.268,0.578,0.529,1.177,0.909,1.679c0.675,0.891,1.735,1.24,2.702,1.704
			c0.537,0.258,1.103,0.46,1.646,0.706c0.846,0.382,1.686,0.777,2.526,1.17c0.285,0.133,0.595,0.24,0.843,0.426
			c0.701,0.526,1.397,1.063,2.057,1.641c0.917,0.802,1.792,1.652,2.697,2.468c1.1,0.992,2.219,1.962,3.314,2.958
			c0.482,0.438,0.962,0.88,1.172,1.543c0.085,0.269,0.058,0.28-0.205,0.297c-1.056,0.071-2.107-0.104-3.177,0.131
			c-0.807,0.177-1.672,0.083-2.481,0.376c-0.435,0.157-0.907,0.211-1.345,0.364c-0.588,0.205-1.161,0.455-1.737,0.694
			c-0.69,0.287-1.374,0.593-2.067,0.872c-0.58,0.232-0.857,0.831-0.629,1.396c0.07,0.174,0.107,0.362,0.171,0.54
			c0.219,0.611,0.396,1.243,0.676,1.825c0.276,0.577,0.684,1.089,0.987,1.655c0.538,1.004,1.287,1.834,2.082,2.63
			c0.471,0.473,0.941,0.951,1.452,1.379c0.903,0.756,1.826,1.489,2.761,2.204c0.453,0.347,0.952,0.634,1.432,0.945
			c0.41,0.267,0.828,0.521,1.23,0.799c0.61,0.421,1.233,0.828,1.81,1.293c0.584,0.472,1.128,0.995,1.67,1.517
			c0.721,0.691,1.437,1.39,2.129,2.11c0.384,0.398,0.716,0.848,1.071,1.274c0.047-0.029,0.095-0.059,0.142-0.088
			c-0.099-0.306-0.223-0.605-0.291-0.918c-0.215-0.979-0.764-1.774-1.358-2.546c-0.36-0.467-0.766-0.902-1.096-1.39
			c-0.506-0.747-0.923-1.556-1.453-2.282c-0.615-0.842-1.291-1.643-1.981-2.424c-0.504-0.569-1.058-1.098-1.622-1.607
			c-0.445-0.4-0.95-0.731-1.413-1.113c-0.807-0.666-1.635-1.312-2.387-2.036c-0.49-0.472-0.886-1.05-1.278-1.613
			c-0.25-0.359-0.417-0.777-0.604-1.137c0.408-0.108,0.796-0.202,1.178-0.313c0.575-0.168,1.151-0.337,1.719-0.528
			c0.463-0.156,0.902-0.4,1.374-0.508c0.716-0.164,1.45-0.244,2.177-0.357c0.248-0.039,0.507-0.036,0.744-0.108
			c0.664-0.2,1.322-0.424,1.979-0.649c0.437-0.149,0.866-0.316,1.299-0.477c0.614-0.229,0.689-0.517,0.321-1.046
			c-0.329-0.472-0.619-0.972-0.929-1.458c-0.508-0.797-0.979-1.621-1.539-2.379c-0.418-0.565-0.952-1.043-1.432-1.563
			c-0.506-0.551-0.991-1.121-1.516-1.654c-0.633-0.643-1.298-1.254-1.948-1.88c-0.57-0.549-1.125-1.115-1.713-1.644
			c-0.572-0.515-1.171-1.001-1.772-1.482c-0.528-0.423-1.052-0.859-1.62-1.224c-0.691-0.444-1.429-0.817-2.142-1.228
			c-0.288-0.166-0.563-0.354-0.848-0.526c-0.295-0.18-0.575-0.405-0.894-0.521c-0.896-0.324-1.629-0.818-1.98-1.737
			c-0.486-1.273-0.938-2.561-1.42-3.836c-0.507-1.34-1.05-2.667-1.542-4.011c-0.502-1.371-0.965-2.756-1.439-4.138
			c-0.519-1.51-1.046-3.017-1.542-4.534c-0.542-1.662-1.002-3.353-1.593-4.996c-0.524-1.459-1.146-2.887-1.789-4.299
			c-0.42-0.925-0.956-1.797-1.437-2.695c-0.595-1.111-1.152-2.243-1.788-3.33c-0.595-1.018-1.255-1.999-1.917-2.976
			c-0.629-0.928-1.284-1.84-1.953-2.741c-0.527-0.709-1.077-1.403-1.645-2.079c-0.515-0.613-1.066-1.194-1.604-1.788
			c-0.319-0.353-0.627-0.72-0.971-1.049c-0.597-0.57-1.219-1.114-1.828-1.672c-1.067-0.978-2.108-1.986-3.206-2.928
			c-0.841-0.721-1.731-1.389-2.638-2.026c-0.642-0.451-1.324-0.857-2.029-1.2c-0.658-0.32-1.366-0.541-2.059-0.787
			c-0.628-0.222-1.252-0.513-1.901-0.605c-1-0.142-2.021-0.123-3.03-0.206c-0.366-0.03-0.726-0.147-1.085-0.239
			c-0.113-0.029-0.241-0.08-0.318-0.162c-0.521-0.557-0.984-1.175-1.551-1.679c-0.838-0.745-1.723-1.443-2.633-2.098
			c-0.612-0.44-1.294-0.789-1.963-1.146c-0.589-0.315-1.186-0.634-1.812-0.862c-0.524-0.192-1.095-0.255-1.645-0.378
			c-0.016-0.003-0.021-0.049-0.031-0.075c23.001,0,46.002,0.001,69.003-0.008c0.351,0,0.456,0.049,0.456,0.438
			c-0.013,45.521-0.012,91.042-0.002,136.563c0,0.354-0.071,0.425-0.426,0.425c-66.189-0.01-132.379-0.011-198.569,0
			c-0.374,0-0.447-0.082-0.446-0.448c0.016-3.936,0.01-7.871,0.01-11.807c2.041,0,4.083-0.01,6.123,0.009
			c0.349,0.004,0.447-0.059,0.447-0.433c-0.013-11.166-0.01-22.332-0.01-33.497c0-0.144,0-0.287,0-0.431
			c0.172,0.225,0.25,0.465,0.331,0.704c0.404,1.191,0.807,2.384,1.214,3.574c0.412,1.203,0.83,2.404,1.242,3.607
			c0.438,1.28,0.872,2.562,1.307,3.843c0.405,1.191,0.809,2.383,1.214,3.574c0.559,1.639,1.12,3.277,1.678,4.917
			c0.406,1.19,0.808,2.383,1.215,3.573c0.517,1.511,1.037,3.02,1.556,4.529c0.457,1.329,0.832,2.688,1.521,3.929
			c0.506,0.911,1.233,1.615,2.135,2.081c0.678,0.351,1.451,0.539,2.232,0.538c1.082-0.001,2.147,0.026,3.213-0.386
			c0.776-0.3,1.439-0.735,1.908-1.323c0.575-0.72,0.982-1.597,1.345-2.455c0.416-0.982,0.704-2.018,1.049-3.03
			c0.528-1.55,1.058-3.099,1.585-4.648c0.405-1.191,0.809-2.383,1.214-3.574c0.528-1.55,1.061-3.098,1.584-4.649
			c0.416-1.23,0.82-2.465,1.23-3.697c0.474-1.426,0.94-2.854,1.423-4.276c0.36-1.063,0.746-2.117,1.112-3.179
			c0.421-1.224,0.833-2.45,1.248-3.676c0.021,0.006,0.043,0.011,0.065,0.016c0,0.052,0,0.103,0,0.153
			c0,11.282,0.002,22.565-0.007,33.848c0,0.313,0.082,0.369,0.378,0.367c1.938-0.016,3.877-0.017,5.816,0
			c0.354,0.004,0.474-0.047,0.473-0.45c-0.014-11.181-0.012-22.361-0.01-33.542c0-1.132-0.074-2.254-0.35-3.356
			c-0.227-0.902-0.677-1.699-1.392-2.261c-0.574-0.45-1.262-0.793-1.95-1.049c-0.714-0.267-1.481-0.473-2.237-0.521
			c-1.122-0.072-2.266-0.142-3.347,0.363c-0.757,0.353-1.388,0.832-1.973,1.432c-0.697,0.714-1.171,1.548-1.509,2.453
			c-0.586,1.571-1.11,3.166-1.645,4.756c-0.491,1.463-0.95,2.937-1.443,4.398c-0.502,1.487-1.033,2.964-1.544,4.448
			c-0.502,1.458-1.004,2.917-1.49,4.381c-0.512,1.542-0.992,3.094-1.509,4.633c-0.5,1.488-1.032,2.966-1.543,4.45
			c-0.378,1.096-0.746,2.196-1.145,3.372c-0.084-0.161-0.154-0.256-0.188-0.362c-0.353-1.096-0.7-2.193-1.049-3.291
			c-0.415-1.304-0.821-2.609-1.246-3.91c-0.42-1.286-0.865-2.565-1.29-3.851c-0.531-1.607-1.055-3.218-1.578-4.828
			c-0.41-1.262-0.812-2.526-1.222-3.788c-0.435-1.34-0.876-2.678-1.314-4.016c-0.417-1.274-0.835-2.547-1.248-3.822
			c-0.258-0.799-0.429-1.636-0.776-2.393c-0.445-0.971-0.89-1.939-1.684-2.736c-0.933-0.935-1.993-1.587-3.274-1.683
			c-1.115-0.084-2.241-0.102-3.37,0.281c-0.929,0.315-1.875,0.555-2.634,1.187c-0.448,0.372-0.9,0.812-1.162,1.318
			c-0.292,0.566-0.376,1.241-0.542,1.872C0.861,106.014,0.813,106.29,0.754,106.564z M157.483,148.285
			c0.038-0.055,0.076-0.108,0.114-0.163c-0.252-0.207-0.538-0.385-0.751-0.627c-0.607-0.69-1.188-1.402-1.771-2.113
			c-0.608-0.741-1.199-1.497-1.811-2.234c-0.653-0.788-1.323-1.561-1.981-2.343c-0.126-0.149-0.256-0.287,0.055-0.428
			c0.239-0.108,0.424-0.334,0.648-0.484c0.808-0.539,1.408-1.246,1.885-2.097c0.727-1.298,1.053-2.715,1.063-4.152
			c0.048-6.995,0.025-13.991,0.018-20.987c-0.001-0.906-0.016-1.815-0.096-2.718c-0.059-0.654-0.173-1.318-0.373-1.943
			c-0.407-1.268-1.112-2.367-2.06-3.315c-0.816-0.816-1.766-1.406-2.847-1.791c-0.449-0.16-0.908-0.293-1.365-0.435
			c-0.571-0.177-1.136-0.401-1.721-0.51c-0.543-0.1-1.11-0.098-1.667-0.1c-3.279-0.008-6.559-0.02-9.837,0.003
			c-1.543,0.011-3.096-0.139-4.621,0.249c-0.464,0.118-0.938,0.19-1.403,0.315c-0.706,0.189-1.374,0.442-2.021,0.751
			c-0.585,0.279-1.194,0.569-1.675,0.989c-0.769,0.672-1.454,1.434-1.966,2.346c-0.709,1.262-1.116,2.626-1.125,4.039
			c-0.043,7.287-0.021,14.574-0.017,21.861c0.001,0.542,0.043,1.085,0.086,1.626c0.107,1.356,0.515,2.606,1.186,3.805
			c0.594,1.06,1.406,1.883,2.359,2.569c0.631,0.454,1.332,0.842,2.052,1.134c0.779,0.315,1.611,0.51,2.432,0.705
			c0.396,0.095,0.819,0.099,1.23,0.096c3.297-0.021,6.593-0.045,9.89-0.09c0.779-0.011,1.558-0.106,2.337-0.168
			c0.051-0.004,0.1-0.068,0.148-0.065c0.293,0.013,0.649-0.061,0.862,0.08c0.292,0.191,0.473,0.549,0.703,0.834
			c0.506,0.625,1.006,1.253,1.52,1.872c0.896,1.078,1.804,2.146,2.693,3.229c0.155,0.189,0.295,0.27,0.55,0.268
			c2.288-0.014,4.577-0.008,6.865-0.008C157.209,148.285,157.347,148.285,157.483,148.285z M83.496,130.135
			c0-5.247-0.002-10.494,0.007-15.741c0-0.302-0.037-0.41-0.384-0.405c-1.953,0.021-3.906,0.019-5.859,0.002
			c-0.331-0.003-0.419,0.072-0.419,0.414c0.011,7.288,0.006,14.575,0.017,21.863c0,0.328-0.077,0.394-0.396,0.393
			c-4.824-0.012-9.649,0.002-14.473-0.021c-0.629-0.003-1.212-0.252-1.795-0.554c-1.217-0.628-1.527-1.683-1.53-2.891
			c-0.014-6.209-0.009-12.418,0-18.627c0-0.303-0.038-0.41-0.385-0.405c-1.836,0.022-3.673,0.011-5.509,0.011
			c-0.232,0-0.465-0.002-0.698-0.002c0.008,0.212,0.018,0.424,0.025,0.636c0.002,0.058,0.001,0.116,0,0.175
			c-0.029,4.938-0.06,9.875-0.087,14.813c-0.007,1.259-0.041,2.52,0.015,3.776c0.032,0.715,0.167,1.436,0.347,2.13
			c0.317,1.222,1.064,2.191,1.908,3.112c0.795,0.867,1.772,1.453,2.795,1.966c0.652,0.327,1.362,0.55,2.064,0.761
			c0.551,0.166,1.126,0.267,1.697,0.352c0.449,0.067,0.908,0.092,1.362,0.092c4.737,0.007,9.474,0.008,14.211-0.004
			c0.342-0.001,0.467,0.045,0.452,0.428c-0.036,0.888,0.002,1.778-0.016,2.667c-0.015,0.726-0.108,1.447-0.615,2.017
			c-0.231,0.259-0.542,0.444-0.807,0.675c-0.719,0.629-1.619,0.846-2.504,0.85c-6.777,0.035-13.555,0.022-20.333,0.011
			c-0.349-0.001-0.413,0.1-0.41,0.423c0.017,1.632,0.018,3.265,0,4.896c-0.004,0.354,0.046,0.475,0.45,0.474
			c6.953-0.016,13.905-0.011,20.857-0.013c0.647,0,1.283,0.015,1.917-0.243c0.565-0.229,1.19-0.312,1.79-0.454
			c0.835-0.198,1.58-0.593,2.296-1.047c1.183-0.75,2.166-1.691,2.867-2.921c0.701-1.229,1.121-2.554,1.13-3.952
			C83.518,140.571,83.496,135.354,83.496,130.135z M108.39,107.613c3.163,0,6.326-0.004,9.489,0.008
			c0.285,0.001,0.351-0.071,0.348-0.352c-0.014-1.676-0.02-3.353,0.004-5.028c0.004-0.355-0.108-0.407-0.427-0.407
			c-6.428,0.009-12.855,0.006-19.284,0.008c-0.806,0-1.594,0.062-2.396,0.228c-0.79,0.163-1.518,0.405-2.255,0.717
			c-1.064,0.45-1.998,1.041-2.848,1.832c-0.747,0.694-1.266,1.518-1.651,2.416c-0.518,1.208-0.679,2.514-0.705,3.82
			c-0.034,1.733-0.022,3.469,0,5.203c0.007,0.575,0.066,1.157,0.176,1.721c0.232,1.189,0.77,2.256,1.566,3.159
			c0.983,1.115,2.2,1.931,3.571,2.502c0.614,0.256,1.234,0.508,1.87,0.695c0.566,0.167,1.156,0.26,1.741,0.353
			c0.391,0.063,0.792,0.098,1.188,0.094c0.842-0.009,1.684-0.076,2.525-0.074c1.115,0.003,2.229,0.061,3.345,0.074
			c1.199,0.015,2.394-0.121,3.587,0.237c0.623,0.188,1.251,0.298,1.774,0.719c0.731,0.59,1.205,1.316,1.212,2.28
			c0.011,1.632-0.002,3.265,0.006,4.897c0.003,0.552-0.075,1.051-0.333,1.574c-0.505,1.021-1.356,1.571-2.352,1.902
			c-0.561,0.187-1.198,0.189-1.802,0.19c-5.918,0.013-11.836,0.01-17.754,0.001c-0.317,0-0.431,0.051-0.426,0.407
			c0.022,1.676,0.022,3.353,0,5.028c-0.004,0.358,0.074,0.442,0.438,0.441c5.801-0.014,11.603,0,17.404-0.02
			c0.963-0.004,1.933,0.145,2.894-0.151c0.604-0.186,1.256-0.206,1.866-0.373c0.548-0.149,1.092-0.353,1.595-0.614
			c0.888-0.46,1.781-0.938,2.491-1.657c0.588-0.596,1.214-1.194,1.638-1.902c0.744-1.244,1.057-2.658,1.063-4.104
			c0.009-2.423-0.02-4.846-0.091-7.268c-0.029-0.987-0.488-1.859-1.029-2.68c-0.493-0.748-1.12-1.358-1.859-1.853
			c-0.646-0.431-1.288-0.878-1.972-1.241c-0.56-0.297-1.167-0.519-1.775-0.704c-0.55-0.168-1.126-0.268-1.696-0.352
			c-0.464-0.067-0.938-0.09-1.407-0.092c-2.347-0.008-4.693,0.014-7.04-0.012c-1.018-0.011-2.058,0.173-3.048-0.25
			c-0.337-0.145-0.708-0.216-1.032-0.381c-1.122-0.572-1.527-1.643-1.667-2.768c-0.136-1.098-0.081-2.222-0.068-3.334
			c0.01-0.854,0.022-1.717,0.154-2.557c0.07-0.448,0.317-0.929,0.625-1.267c0.776-0.854,1.914-1.007,2.947-1.036
			C102.12,107.556,105.256,107.613,108.39,107.613z M159.153,117.688c0,3.73-0.02,7.462,0.009,11.192
			c0.014,1.856-0.196,3.729,0.182,5.566c0.177,0.857,0.426,1.727,0.808,2.509c0.365,0.749,0.926,1.407,1.441,2.074
			c0.228,0.294,0.532,0.543,0.843,0.753c0.454,0.307,0.986,0.509,1.41,0.849c0.663,0.531,1.49,0.606,2.234,0.899
			c0.556,0.218,1.178,0.271,1.774,0.373c0.74,0.128,1.484,0.328,2.228,0.331c6.019,0.027,12.038,0.013,18.057,0.023
			c0.28,0,0.324-0.074,0.322-0.333c-0.013-1.72-0.02-3.44,0.005-5.159c0.005-0.353-0.111-0.383-0.408-0.382
			c-5.64,0.008-11.279,0.006-16.92,0.006c-0.974,0-1.952,0.004-2.877-0.354c-0.426-0.164-0.863-0.349-1.225-0.619
			c-0.911-0.685-1.212-1.678-1.232-2.771c-0.014-0.751,0.01-1.502-0.005-2.252c-0.016-0.837-0.075-1.673-0.081-2.51
			c-0.003-0.559,0.08-1.117,0.077-1.676c-0.005-0.997-0.069-1.993-0.067-2.989c0.002-1.196,0.068-2.394,0.07-3.59
			c0.008-5.815,0.001-11.63,0.01-17.445c0.001-0.28-0.064-0.352-0.349-0.35c-1.967,0.014-3.935,0.017-5.902-0.003
			c-0.347-0.003-0.411,0.098-0.41,0.423C159.157,107.398,159.153,112.543,159.153,117.688z M197.241,140.393
			c-0.132-0.392-0.271-0.773-0.389-1.161c-0.271-0.883-0.528-1.77-0.801-2.652c-0.023-0.074-0.114-0.177-0.178-0.181
			c-0.349-0.018-0.699-0.016-1.048,0c-0.059,0.003-0.158,0.104-0.162,0.165c-0.015,0.302-0.006,0.605-0.003,0.908
			c0.003,0.324,0.002,0.648,0.014,0.972c0.021,0.553,0.068,1.105,0.07,1.657c0.002,0.622-0.04,1.245-0.048,1.867
			c-0.002,0.12,0.052,0.333,0.11,0.344c0.223,0.042,0.462,0.044,0.683-0.001c0.044-0.009,0.038-0.286,0.048-0.44
			c0.007-0.102,0.001-0.204,0.001-0.306c0-1.252,0-2.504,0-3.756c0.271,0.722,0.491,1.445,0.7,2.173
			c0.21,0.731,0.404,1.468,0.619,2.198c0.021,0.067,0.164,0.165,0.213,0.146c0.155-0.059,0.386,0.204,0.481-0.151
			c0.208-0.772,0.47-1.53,0.695-2.299c0.169-0.573,0.317-1.152,0.475-1.729c0.053,1.293,0.064,2.574,0.044,3.854
			c-0.005,0.3,0.092,0.376,0.358,0.337c0.071-0.011,0.146-0.011,0.218,0c0.302,0.048,0.412-0.031,0.405-0.379
			c-0.025-1.486-0.009-2.973-0.012-4.458c0-0.361,0.124-0.893-0.057-1.039c-0.231-0.188-0.715-0.076-1.088-0.063
			c-0.088,0.003-0.224,0.113-0.25,0.2C197.966,137.863,197.604,139.132,197.241,140.393z M143.415,40.094
			c0.047,0.007,0.094,0.015,0.142,0.023c0.226-0.386,0.526-0.747,0.662-1.163c0.295-0.904,0.612-1.8,0.171-2.794
			c-0.349-0.785-0.69-1.533-1.402-2.055c-0.16-0.118-0.299-0.38-0.445-0.378c-0.589,0.007-1.178,0.083-1.764,0.158
			c-0.08,0.01-0.22,0.208-0.2,0.244c0.344,0.604,0.714,1.193,1.065,1.793c0.248,0.421,0.524,0.834,0.706,1.284
			C142.733,38.157,143.063,39.13,143.415,40.094z M191.913,136.39c-0.48,0-0.963,0.024-1.44-0.009
			c-0.321-0.021-0.371,0.09-0.364,0.381c0.02,0.759-0.055,0.679,0.675,0.678c0.103,0,0.207,0.015,0.306-0.003
			c0.292-0.053,0.371,0.073,0.345,0.348c-0.023,0.236-0.005,0.477-0.005,0.714c0,1.133,0.012,2.266-0.008,3.398
			c-0.005,0.333,0.075,0.494,0.432,0.443c0.128-0.018,0.268,0.023,0.39-0.009c0.09-0.023,0.229-0.123,0.229-0.189
			c0.006-0.629-0.02-1.258-0.021-1.888c-0.002-0.384,0.024-0.769,0.03-1.153c0.006-0.359,0.038-0.725-0.007-1.078
			c-0.065-0.511-0.03-0.583,0.474-0.583c0.822,0,0.828,0,0.746-0.845c-0.007-0.074-0.135-0.193-0.209-0.196
			C192.961,136.382,192.437,136.39,191.913,136.39z"/>
		<path fill-rule="evenodd" clip-rule="evenodd" fill="#046A8F" d="M0.754,106.564c0.059-0.274,0.107-0.551,0.178-0.821
			c0.166-0.631,0.249-1.306,0.542-1.872c0.262-0.507,0.714-0.946,1.162-1.318c0.76-0.632,1.705-0.871,2.634-1.187
			c1.129-0.383,2.255-0.365,3.37-0.281c1.282,0.096,2.342,0.748,3.274,1.683c0.794,0.797,1.239,1.766,1.684,2.736
			c0.347,0.757,0.519,1.594,0.776,2.393c0.412,1.275,0.831,2.548,1.248,3.822c0.438,1.338,0.879,2.676,1.314,4.016
			c0.41,1.262,0.813,2.526,1.222,3.788c0.523,1.61,1.046,3.221,1.578,4.828c0.425,1.285,0.869,2.564,1.29,3.851
			c0.425,1.301,0.832,2.606,1.246,3.91c0.349,1.098,0.696,2.195,1.049,3.291c0.034,0.106,0.104,0.201,0.188,0.362
			c0.399-1.176,0.767-2.276,1.145-3.372c0.512-1.484,1.044-2.962,1.543-4.45c0.517-1.539,0.997-3.091,1.509-4.633
			c0.486-1.464,0.988-2.923,1.49-4.381c0.511-1.484,1.042-2.961,1.544-4.448c0.494-1.462,0.952-2.936,1.443-4.398
			c0.534-1.59,1.059-3.185,1.645-4.756c0.338-0.905,0.812-1.739,1.509-2.453c0.585-0.6,1.216-1.079,1.973-1.432
			c1.082-0.505,2.225-0.436,3.347-0.363c0.756,0.049,1.523,0.255,2.237,0.521c0.688,0.256,1.376,0.599,1.95,1.049
			c0.715,0.562,1.166,1.358,1.392,2.261c0.276,1.103,0.351,2.225,0.35,3.356c-0.002,11.181-0.004,22.361,0.01,33.542
			c0,0.403-0.119,0.454-0.473,0.45c-1.938-0.017-3.877-0.016-5.816,0c-0.296,0.002-0.378-0.054-0.378-0.367
			c0.009-11.282,0.007-22.565,0.007-33.848c0-0.051,0-0.102,0-0.153c-0.021-0.005-0.043-0.01-0.065-0.016
			c-0.416,1.226-0.827,2.452-1.248,3.676c-0.366,1.062-0.751,2.116-1.112,3.179c-0.483,1.423-0.95,2.851-1.423,4.276
			c-0.41,1.232-0.815,2.467-1.23,3.697c-0.524,1.552-1.057,3.1-1.584,4.649c-0.405,1.191-0.809,2.383-1.214,3.574
			c-0.528,1.55-1.058,3.099-1.585,4.648c-0.345,1.013-0.633,2.048-1.049,3.03c-0.363,0.858-0.771,1.735-1.345,2.455
			c-0.469,0.588-1.132,1.023-1.908,1.323c-1.066,0.412-2.131,0.385-3.213,0.386c-0.782,0.001-1.555-0.188-2.232-0.538
			c-0.902-0.466-1.629-1.17-2.135-2.081c-0.689-1.24-1.064-2.6-1.521-3.929c-0.519-1.51-1.039-3.019-1.556-4.529
			c-0.407-1.19-0.809-2.383-1.215-3.573c-0.559-1.64-1.12-3.278-1.678-4.917c-0.406-1.191-0.809-2.383-1.214-3.574
			c-0.435-1.281-0.869-2.563-1.307-3.843c-0.412-1.203-0.831-2.404-1.242-3.607c-0.407-1.19-0.81-2.383-1.214-3.574
			c-0.081-0.239-0.158-0.479-0.331-0.704c0,0.144,0,0.287,0,0.431c0,11.165-0.002,22.331,0.01,33.497
			c0,0.374-0.098,0.437-0.447,0.433c-2.041-0.019-4.082-0.009-6.123-0.009C0.754,130.354,0.754,118.459,0.754,106.564z"/>
		<path fill-rule="evenodd" clip-rule="evenodd" fill="#0A7B9E" d="M130.728,17.087c0.01,0.026,0.016,0.071,0.031,0.075
			c0.55,0.124,1.12,0.187,1.645,0.378c0.626,0.228,1.223,0.546,1.812,0.862c0.669,0.357,1.351,0.706,1.963,1.146
			c0.91,0.655,1.795,1.354,2.633,2.098c0.566,0.503,1.03,1.122,1.551,1.679c0.077,0.083,0.205,0.133,0.318,0.162
			c0.359,0.092,0.719,0.209,1.085,0.239c1.01,0.083,2.03,0.064,3.03,0.206c0.649,0.092,1.273,0.383,1.901,0.605
			c0.692,0.246,1.4,0.466,2.059,0.787c0.705,0.343,1.388,0.749,2.029,1.2c0.906,0.638,1.797,1.306,2.638,2.026
			c1.098,0.942,2.139,1.95,3.206,2.928c0.609,0.558,1.231,1.102,1.828,1.672c0.344,0.329,0.651,0.696,0.971,1.049
			c0.538,0.593,1.09,1.175,1.604,1.788c0.567,0.676,1.117,1.37,1.645,2.079c0.669,0.9,1.324,1.813,1.953,2.741
			c0.662,0.977,1.322,1.958,1.917,2.976c0.636,1.086,1.193,2.219,1.788,3.33c0.48,0.898,1.017,1.77,1.437,2.695
			c0.643,1.413,1.265,2.84,1.789,4.299c0.591,1.644,1.051,3.334,1.593,4.996c0.496,1.517,1.023,3.024,1.542,4.534
			c0.475,1.381,0.938,2.767,1.439,4.138c0.492,1.345,1.035,2.671,1.542,4.011c0.481,1.276,0.934,2.563,1.42,3.836
			c0.352,0.918,1.085,1.413,1.98,1.737c0.318,0.115,0.599,0.341,0.894,0.521c0.284,0.173,0.56,0.36,0.848,0.526
			c0.713,0.411,1.45,0.784,2.142,1.228c0.568,0.365,1.092,0.801,1.62,1.224c0.602,0.481,1.2,0.968,1.772,1.482
			c0.588,0.529,1.143,1.095,1.713,1.644c0.65,0.626,1.315,1.238,1.948,1.88c0.524,0.533,1.01,1.103,1.516,1.654
			c0.479,0.52,1.014,0.998,1.432,1.563c0.56,0.758,1.031,1.583,1.539,2.379c0.31,0.486,0.6,0.985,0.929,1.458
			c0.368,0.529,0.293,0.817-0.321,1.046c-0.433,0.161-0.862,0.328-1.299,0.477c-0.656,0.225-1.314,0.449-1.979,0.649
			c-0.237,0.072-0.496,0.069-0.744,0.108c-0.727,0.113-1.461,0.193-2.177,0.357c-0.472,0.107-0.911,0.352-1.374,0.508
			c-0.567,0.191-1.144,0.36-1.719,0.528c-0.382,0.112-0.77,0.206-1.178,0.313c0.188,0.36,0.354,0.777,0.604,1.137
			c0.393,0.563,0.788,1.142,1.278,1.613c0.752,0.724,1.58,1.37,2.387,2.036c0.463,0.382,0.968,0.713,1.413,1.113
			c0.564,0.51,1.118,1.038,1.622,1.607c0.69,0.781,1.366,1.582,1.981,2.424c0.53,0.727,0.947,1.535,1.453,2.282
			c0.33,0.487,0.735,0.923,1.096,1.39c0.595,0.771,1.144,1.567,1.358,2.546c0.068,0.313,0.192,0.612,0.291,0.918
			c-0.047,0.029-0.095,0.059-0.142,0.088c-0.355-0.427-0.688-0.876-1.071-1.274c-0.692-0.721-1.408-1.419-2.129-2.11
			c-0.542-0.521-1.086-1.045-1.67-1.517c-0.576-0.465-1.199-0.872-1.81-1.293c-0.402-0.277-0.82-0.532-1.23-0.799
			c-0.479-0.312-0.979-0.599-1.432-0.945c-0.935-0.715-1.857-1.448-2.761-2.204c-0.511-0.428-0.981-0.906-1.452-1.379
			c-0.795-0.796-1.544-1.626-2.082-2.63c-0.304-0.565-0.711-1.078-0.987-1.655c-0.279-0.582-0.457-1.213-0.676-1.825
			c-0.063-0.178-0.101-0.365-0.171-0.54c-0.229-0.566,0.049-1.164,0.629-1.396c0.693-0.279,1.377-0.585,2.067-0.872
			c0.576-0.239,1.149-0.49,1.737-0.694c0.438-0.153,0.91-0.207,1.345-0.364c0.81-0.293,1.675-0.199,2.481-0.376
			c1.069-0.235,2.121-0.06,3.177-0.131c0.263-0.018,0.29-0.029,0.205-0.297c-0.21-0.663-0.689-1.105-1.172-1.543
			c-1.096-0.996-2.215-1.966-3.314-2.958c-0.905-0.816-1.78-1.666-2.697-2.468c-0.659-0.577-1.355-1.114-2.057-1.641
			c-0.248-0.186-0.558-0.292-0.843-0.426c-0.841-0.394-1.681-0.789-2.526-1.17c-0.544-0.246-1.109-0.447-1.646-0.706
			c-0.967-0.464-2.027-0.813-2.702-1.704c-0.38-0.502-0.642-1.101-0.909-1.679c-0.425-0.919-0.837-1.846-1.204-2.789
			c-0.378-0.97-0.7-1.962-1.036-2.948c-0.432-1.268-0.843-2.543-1.282-3.809c-0.506-1.456-1.046-2.899-1.55-4.355
			c-0.482-1.394-0.946-2.794-1.401-4.198c-0.359-1.109-0.656-2.241-1.048-3.338c-0.391-1.093-0.852-2.161-1.306-3.229
			c-0.416-0.98-0.836-1.961-1.307-2.916c-0.432-0.877-0.923-1.726-1.407-2.577c-0.451-0.794-0.914-1.582-1.396-2.357
			c-0.427-0.689-0.871-1.368-1.334-2.033c-0.774-1.114-1.547-2.231-2.364-3.313c-0.515-0.681-1.093-1.316-1.671-1.945
			c-0.986-1.07-1.957-2.157-3.005-3.164c-0.936-0.9-1.951-1.721-2.96-2.541c-0.854-0.694-1.724-1.373-2.633-1.989
			c-0.692-0.469-1.457-0.832-2.19-1.24c-0.515-0.287-1.022-0.588-1.55-0.851c-0.215-0.107-0.469-0.159-0.711-0.191
			c-0.765-0.101-1.531-0.19-2.299-0.267c-0.468-0.047-0.979,0.043-1.398-0.116c-0.623-0.237-1.249-0.173-1.871-0.259
			c-0.295-0.041-0.595-0.304-0.821-0.536c-0.717-0.733-1.368-1.532-2.107-2.239c-0.461-0.441-1.024-0.782-1.563-1.135
			c-0.694-0.455-1.399-0.896-2.12-1.307c-0.53-0.302-1.085-0.569-1.647-0.807c-0.425-0.18-0.873-0.309-1.32-0.422
			c-0.515-0.131-1.427,0.569-1.603,1.137c-0.399,1.291,0.051,2.439,0.574,3.566c0.421,0.907,0.892,1.792,1.369,2.672
			c0.383,0.707,0.822,1.383,1.21,2.087c0.511,0.926,0.993,1.867,1.491,2.8c0.942,1.765,1.45,3.679,1.927,5.604
			c0.174,0.702,0.347,1.403,0.521,2.105c0.351,1.404,0.666,2.817,1.063,4.208c0.342,1.196,0.749,2.376,1.179,3.543
			c0.576,1.562,1.37,2.995,2.424,4.307c0.658,0.82,0.837,1.821,0.692,2.93c-0.278,2.135-1.031,4.141-1.498,6.22
			c-0.23,1.029-0.325,2.091-0.439,3.143c-0.093,0.862-0.131,1.73-0.179,2.596c-0.041,0.731-0.117,1.466-0.078,2.194
			c0.077,1.457,0.19,2.913,0.35,4.362c0.122,1.116,0.255,2.242,0.533,3.326c0.384,1.493,0.843,2.975,1.398,4.412
			c0.292,0.754,0.829,1.434,1.603,1.823c0.119,0.06,0.38,0.171,0.4-0.213c0.056-1.03,0.155-2.059,0.255-3.086
			c0.105-1.091,0.167-2.191,0.362-3.267c0.255-1.397,0.577-2.787,0.963-4.154c0.161-0.574,0.548-1.087,0.85-1.619
			c0.344-0.605,0.708-1.199,1.062-1.798c0.124-0.211,0.243-0.425,0.364-0.638c0.053-0.004,0.105-0.009,0.158-0.013
			c0.155,0.587,0.291,1.18,0.469,1.76c0.356,1.166,0.715,2.332,1.109,3.486c0.563,1.65,1.122,3.303,1.75,4.929
			c0.564,1.46,1.194,2.897,1.843,4.322c0.693,1.525,1.415,3.039,2.179,4.53c0.49,0.958,1.119,1.843,1.614,2.798
			c0.66,1.273,1.503,2.414,2.398,3.52c0.341,0.42,0.726,0.805,1.091,1.205c-0.042,0.05-0.084,0.099-0.127,0.149
			c-0.374-0.303-0.809-0.555-1.11-0.917c-0.769-0.923-1.454-1.917-2.221-2.842c-0.483-0.583-1.095-1.06-1.578-1.643
			c-1.029-1.243-2.056-2.493-3.002-3.799c-0.646-0.892-1.117-1.908-1.734-2.823c-0.629-0.932-0.9-1.997-1.283-3.023
			c-0.444-1.19-0.89-2.379-1.38-3.692c-0.114,0.463-0.235,0.809-0.28,1.164c-0.133,1.044-0.221,2.093-0.354,3.137
			c-0.166,1.307-0.209,2.634-0.605,3.907c-0.311,0.999-0.896,1.764-1.841,2.233c-0.54,0.268-1.88,0.033-2.354-0.442
			c-0.517-0.521-1.063-1.03-1.479-1.626c-0.707-1.013-1.29-2.11-1.671-3.292c-0.403-1.253-0.798-2.512-1.121-3.787
			c-0.22-0.869-0.324-1.768-0.455-2.657c-0.259-1.765-0.391-3.538-0.357-5.324c0.021-1.054-0.041-2.112,0.018-3.164
			c0.061-1.093,0.171-2.188,0.35-3.268c0.21-1.273,0.529-2.528,0.774-3.796c0.145-0.748,0.21-1.512,0.357-2.26
			c0.119-0.599,0.243-1.213,0.484-1.769c0.243-0.563,0.094-1.032-0.22-1.427c-0.782-0.986-1.388-2.059-1.847-3.226
			c-0.439-1.119-0.948-2.213-1.356-3.343c-0.304-0.841-0.5-1.721-0.739-2.585c-0.362-1.311-0.737-2.619-1.077-3.937
			c-0.388-1.507-0.705-3.034-1.129-4.531c-0.227-0.801-0.585-1.569-0.934-2.329c-0.316-0.688-0.683-1.354-1.061-2.011
			c-0.452-0.782-0.966-1.528-1.407-2.315c-0.604-1.076-1.2-2.16-1.733-3.272c-0.325-0.679-0.6-1.402-0.765-2.135
			c-0.232-1.035-0.28-2.09-0.135-3.164c0.125-0.933,0.425-1.779,0.898-2.567c0.468-0.778,1.042-1.454,2-1.667
			c0.186-0.041,0.353-0.168,0.527-0.255C129.736,17.087,130.231,17.087,130.728,17.087z"/>
		<path fill-rule="evenodd" clip-rule="evenodd" fill="#D78D29" d="M157.483,148.285c-0.137,0-0.274,0-0.411,0
			c-2.288,0-4.577-0.006-6.865,0.008c-0.255,0.002-0.395-0.078-0.55-0.268c-0.89-1.083-1.798-2.151-2.693-3.229
			c-0.514-0.619-1.014-1.247-1.52-1.872c-0.23-0.285-0.411-0.643-0.703-0.834c-0.213-0.141-0.569-0.067-0.862-0.08
			c-0.049-0.003-0.098,0.062-0.148,0.065c-0.779,0.062-1.558,0.157-2.337,0.168c-3.297,0.045-6.593,0.068-9.89,0.09
			c-0.411,0.003-0.835-0.001-1.23-0.096c-0.82-0.195-1.652-0.39-2.432-0.705c-0.72-0.292-1.421-0.68-2.052-1.134
			c-0.953-0.687-1.766-1.51-2.359-2.569c-0.671-1.198-1.078-2.448-1.186-3.805c-0.043-0.541-0.085-1.084-0.086-1.626
			c-0.005-7.287-0.026-14.574,0.017-21.861c0.009-1.413,0.416-2.777,1.125-4.039c0.512-0.912,1.197-1.674,1.966-2.346
			c0.48-0.42,1.09-0.71,1.675-0.989c0.646-0.309,1.314-0.562,2.021-0.751c0.466-0.125,0.939-0.197,1.403-0.315
			c1.525-0.388,3.078-0.238,4.621-0.249c3.278-0.022,6.558-0.011,9.837-0.003c0.557,0.002,1.124,0,1.667,0.1
			c0.585,0.108,1.149,0.333,1.721,0.51c0.457,0.142,0.916,0.274,1.365,0.435c1.081,0.385,2.03,0.975,2.847,1.791
			c0.947,0.948,1.652,2.048,2.06,3.315c0.2,0.625,0.314,1.289,0.373,1.943c0.08,0.902,0.095,1.812,0.096,2.718
			c0.008,6.996,0.03,13.992-0.018,20.987c-0.01,1.438-0.336,2.854-1.063,4.152c-0.477,0.851-1.077,1.558-1.885,2.097
			c-0.225,0.15-0.409,0.376-0.648,0.484c-0.311,0.141-0.181,0.278-0.055,0.428c0.658,0.782,1.328,1.555,1.981,2.343
			c0.611,0.737,1.202,1.493,1.811,2.234c0.583,0.711,1.164,1.423,1.771,2.113c0.213,0.242,0.499,0.42,0.751,0.627
			C157.56,148.177,157.521,148.23,157.483,148.285z M134.588,129.917c2.424,0,4.728,0.021,7.029-0.018
			c0.466-0.008,0.78,0.154,1.039,0.458c0.621,0.73,1.21,1.488,1.815,2.231c0.803,0.984,1.605,1.97,2.425,2.939
			c0.067,0.08,0.313,0.108,0.403,0.049c0.203-0.133,0.38-0.32,0.532-0.513c0.694-0.878,0.989-1.911,0.992-3.003
			c0.018-6.574,0.02-13.148-0.003-19.722c-0.003-1.009-0.171-1.98-0.827-2.859c-0.572-0.767-1.296-1.217-2.146-1.502
			c-0.429-0.144-0.91-0.181-1.368-0.183c-3.425-0.014-6.851-0.001-10.276-0.011c-1.107-0.003-2.186,0.11-3.094,0.8
			c-0.484,0.368-0.986,0.776-1.313,1.275c-0.447,0.688-0.546,1.534-0.549,2.346c-0.016,6.122-0.001,12.245-0.017,18.367
			c-0.002,0.884,0.054,1.751,0.274,2.604c0.215,0.832,0.502,1.619,1.234,2.176c0.368,0.28,0.726,0.526,1.153,0.73
			c0.596,0.283,1.223,0.434,1.827,0.455c1.966,0.068,3.935,0.025,5.903,0.025c0.122,0,0.244,0,0.479,0
			C138.234,134.313,136.438,132.146,134.588,129.917z"/>
		<path fill-rule="evenodd" clip-rule="evenodd" fill="#066F94" d="M83.496,130.135c0,5.219,0.021,10.437-0.014,15.654
			c-0.009,1.398-0.429,2.724-1.13,3.952c-0.701,1.229-1.684,2.171-2.867,2.921c-0.716,0.454-1.461,0.849-2.296,1.047
			c-0.6,0.143-1.225,0.225-1.79,0.454c-0.634,0.258-1.27,0.243-1.917,0.243c-6.952,0.002-13.905-0.003-20.857,0.013
			c-0.404,0.001-0.454-0.12-0.45-0.474c0.019-1.632,0.017-3.265,0-4.896c-0.003-0.323,0.061-0.424,0.41-0.423
			c6.778,0.012,13.556,0.024,20.333-0.011c0.885-0.004,1.785-0.221,2.504-0.85c0.264-0.23,0.576-0.416,0.807-0.675
			c0.507-0.569,0.601-1.291,0.615-2.017c0.018-0.889-0.021-1.779,0.016-2.667c0.015-0.383-0.11-0.429-0.452-0.428
			c-4.737,0.012-9.474,0.011-14.211,0.004c-0.455,0-0.914-0.024-1.362-0.092c-0.571-0.085-1.146-0.186-1.697-0.352
			c-0.702-0.211-1.412-0.434-2.064-0.761c-1.022-0.513-2-1.099-2.795-1.966c-0.844-0.921-1.591-1.891-1.908-3.112
			c-0.18-0.694-0.315-1.415-0.347-2.13c-0.055-1.257-0.021-2.518-0.015-3.776c0.027-4.938,0.058-9.875,0.087-14.813
			c0-0.059,0.002-0.117,0-0.175c-0.007-0.212-0.017-0.424-0.025-0.636c0.232,0,0.465,0.002,0.698,0.002
			c1.836,0,3.673,0.012,5.509-0.011c0.347-0.005,0.385,0.103,0.385,0.405c-0.009,6.209-0.014,12.418,0,18.627
			c0.003,1.208,0.313,2.263,1.53,2.891c0.583,0.302,1.167,0.551,1.795,0.554c4.824,0.022,9.649,0.009,14.473,0.021
			c0.32,0.001,0.397-0.064,0.396-0.393c-0.011-7.288-0.006-14.575-0.017-21.863c0-0.342,0.088-0.417,0.419-0.414
			c1.953,0.017,3.906,0.02,5.859-0.002c0.348-0.005,0.385,0.104,0.384,0.405C83.494,119.641,83.496,124.888,83.496,130.135z"/>
		<path fill-rule="evenodd" clip-rule="evenodd" fill="#CF8B2B" d="M108.39,107.613c-3.134,0-6.27-0.058-9.401,0.033
			c-1.034,0.029-2.171,0.182-2.947,1.036c-0.308,0.338-0.554,0.818-0.625,1.267c-0.132,0.84-0.145,1.703-0.154,2.557
			c-0.013,1.112-0.068,2.236,0.068,3.334c0.139,1.125,0.545,2.195,1.667,2.768c0.324,0.165,0.695,0.236,1.032,0.381
			c0.99,0.423,2.03,0.239,3.048,0.25c2.347,0.025,4.693,0.004,7.04,0.012c0.47,0.002,0.943,0.024,1.407,0.092
			c0.57,0.084,1.146,0.184,1.696,0.352c0.608,0.186,1.216,0.407,1.775,0.704c0.684,0.363,1.325,0.811,1.972,1.241
			c0.739,0.494,1.366,1.104,1.859,1.853c0.541,0.82,1,1.692,1.029,2.68c0.071,2.422,0.1,4.845,0.091,7.268
			c-0.006,1.445-0.318,2.859-1.063,4.104c-0.424,0.708-1.05,1.307-1.638,1.902c-0.71,0.72-1.604,1.197-2.491,1.657
			c-0.503,0.262-1.047,0.465-1.595,0.614c-0.61,0.167-1.263,0.188-1.866,0.373c-0.961,0.296-1.931,0.147-2.894,0.151
			c-5.801,0.02-11.603,0.006-17.404,0.02c-0.364,0.001-0.443-0.083-0.438-0.441c0.022-1.676,0.022-3.353,0-5.028
			c-0.005-0.356,0.109-0.407,0.426-0.407c5.918,0.009,11.836,0.012,17.754-0.001c0.604-0.001,1.241-0.004,1.802-0.19
			c0.995-0.331,1.847-0.881,2.352-1.902c0.258-0.523,0.336-1.022,0.333-1.574c-0.008-1.633,0.005-3.266-0.006-4.897
			c-0.007-0.964-0.48-1.69-1.212-2.28c-0.523-0.421-1.151-0.531-1.774-0.719c-1.193-0.358-2.388-0.223-3.587-0.237
			c-1.115-0.014-2.229-0.071-3.345-0.074c-0.841-0.002-1.683,0.065-2.525,0.074c-0.396,0.004-0.796-0.031-1.188-0.094
			c-0.584-0.093-1.175-0.186-1.741-0.353c-0.636-0.188-1.256-0.439-1.87-0.695c-1.372-0.571-2.588-1.387-3.571-2.502
			c-0.796-0.903-1.334-1.97-1.566-3.159c-0.11-0.563-0.169-1.146-0.176-1.721c-0.022-1.734-0.034-3.47,0-5.203
			c0.025-1.307,0.187-2.612,0.705-3.82c0.385-0.898,0.904-1.722,1.651-2.416c0.85-0.791,1.784-1.382,2.848-1.832
			c0.737-0.312,1.466-0.554,2.255-0.717c0.802-0.166,1.591-0.228,2.396-0.228c6.428-0.002,12.856,0.001,19.284-0.008
			c0.318,0,0.431,0.052,0.427,0.407c-0.023,1.676-0.018,3.353-0.004,5.028c0.003,0.28-0.063,0.353-0.348,0.352
			C114.716,107.609,111.553,107.613,108.39,107.613z"/>
		<path fill-rule="evenodd" clip-rule="evenodd" fill="#CF8B2B" d="M159.153,117.688c0-5.145,0.004-10.289-0.007-15.434
			c-0.001-0.325,0.063-0.426,0.41-0.423c1.968,0.02,3.936,0.017,5.902,0.003c0.284-0.002,0.35,0.069,0.349,0.35
			c-0.009,5.815-0.002,11.63-0.01,17.445c-0.002,1.196-0.068,2.394-0.07,3.59c-0.002,0.996,0.063,1.992,0.067,2.989
			c0.003,0.559-0.08,1.117-0.077,1.676c0.006,0.837,0.065,1.673,0.081,2.51c0.015,0.75-0.009,1.501,0.005,2.252
			c0.021,1.094,0.321,2.087,1.232,2.771c0.361,0.271,0.799,0.455,1.225,0.619c0.925,0.357,1.903,0.354,2.877,0.354
			c5.641,0,11.28,0.002,16.92-0.006c0.297-0.001,0.413,0.029,0.408,0.382c-0.024,1.719-0.018,3.439-0.005,5.159
			c0.002,0.259-0.042,0.333-0.322,0.333c-6.019-0.011-12.038,0.004-18.057-0.023c-0.743-0.003-1.487-0.203-2.228-0.331
			c-0.597-0.103-1.219-0.155-1.774-0.373c-0.744-0.293-1.571-0.368-2.234-0.899c-0.424-0.34-0.956-0.542-1.41-0.849
			c-0.311-0.21-0.615-0.459-0.843-0.753c-0.516-0.667-1.076-1.325-1.441-2.074c-0.382-0.782-0.631-1.651-0.808-2.509
			c-0.378-1.838-0.168-3.71-0.182-5.566C159.134,125.149,159.153,121.418,159.153,117.688z"/>
		<path fill-rule="evenodd" clip-rule="evenodd" fill="#CF8C2C" d="M197.241,140.393c0.363-1.261,0.725-2.529,1.101-3.793
			c0.026-0.087,0.162-0.197,0.25-0.2c0.373-0.013,0.856-0.124,1.088,0.063c0.181,0.146,0.057,0.678,0.057,1.039
			c0.003,1.485-0.014,2.972,0.012,4.458c0.007,0.348-0.104,0.427-0.405,0.379c-0.071-0.011-0.146-0.011-0.218,0
			c-0.267,0.039-0.363-0.037-0.358-0.337c0.021-1.28,0.009-2.562-0.044-3.854c-0.157,0.576-0.306,1.155-0.475,1.729
			c-0.226,0.769-0.487,1.526-0.695,2.299c-0.096,0.355-0.326,0.093-0.481,0.151c-0.049,0.019-0.192-0.079-0.213-0.146
			c-0.215-0.73-0.409-1.467-0.619-2.198c-0.209-0.728-0.429-1.451-0.7-2.173c0,1.252,0,2.504,0,3.756
			c0,0.102,0.006,0.204-0.001,0.306c-0.01,0.154-0.004,0.432-0.048,0.44c-0.221,0.045-0.46,0.043-0.683,0.001
			c-0.059-0.011-0.112-0.224-0.11-0.344c0.008-0.622,0.05-1.245,0.048-1.867c-0.002-0.552-0.05-1.104-0.07-1.657
			c-0.012-0.323-0.011-0.647-0.014-0.972c-0.003-0.303-0.012-0.606,0.003-0.908c0.004-0.061,0.104-0.162,0.162-0.165
			c0.349-0.016,0.699-0.018,1.048,0c0.063,0.004,0.154,0.106,0.178,0.181c0.272,0.883,0.53,1.77,0.801,2.652
			C196.971,139.619,197.109,140.001,197.241,140.393z"/>
		<path fill-rule="evenodd" clip-rule="evenodd" fill="#056A8F" d="M143.415,40.094c-0.352-0.964-0.682-1.937-1.065-2.889
			c-0.182-0.45-0.458-0.862-0.706-1.284c-0.352-0.6-0.722-1.189-1.065-1.793c-0.02-0.036,0.12-0.233,0.2-0.244
			c0.586-0.076,1.175-0.151,1.764-0.158c0.146-0.002,0.285,0.261,0.445,0.378c0.712,0.521,1.054,1.27,1.402,2.055
			c0.441,0.995,0.124,1.89-0.171,2.794c-0.136,0.416-0.437,0.777-0.662,1.163C143.509,40.109,143.462,40.102,143.415,40.094z"/>
		<path fill-rule="evenodd" clip-rule="evenodd" fill="#D08C2D" d="M191.913,136.39c0.523,0,1.048-0.008,1.571,0.009
			c0.074,0.003,0.202,0.122,0.209,0.196c0.082,0.845,0.076,0.845-0.746,0.845c-0.504,0-0.539,0.072-0.474,0.583
			c0.045,0.354,0.013,0.719,0.007,1.078c-0.006,0.385-0.032,0.77-0.03,1.153c0.002,0.63,0.027,1.259,0.021,1.888
			c-0.001,0.066-0.14,0.166-0.229,0.189c-0.122,0.032-0.262-0.009-0.39,0.009c-0.356,0.051-0.437-0.11-0.432-0.443
			c0.02-1.133,0.008-2.266,0.008-3.398c0-0.237-0.019-0.478,0.005-0.714c0.026-0.274-0.053-0.4-0.345-0.348
			c-0.099,0.018-0.203,0.003-0.306,0.003c-0.729,0.001-0.655,0.081-0.675-0.678c-0.007-0.291,0.043-0.402,0.364-0.381
			C190.95,136.414,191.433,136.39,191.913,136.39z"/>
		<path fill-rule="evenodd" clip-rule="evenodd" fill="none" d="M134.588,129.917c1.85,2.229,3.646,4.396,5.516,6.647
			c-0.234,0-0.356,0-0.479,0c-1.969,0-3.938,0.043-5.903-0.025c-0.604-0.021-1.231-0.172-1.827-0.455
			c-0.428-0.204-0.785-0.45-1.153-0.73c-0.732-0.557-1.02-1.344-1.234-2.176c-0.221-0.854-0.276-1.721-0.274-2.604
			c0.016-6.122,0.001-12.245,0.017-18.367c0.003-0.812,0.102-1.658,0.549-2.346c0.326-0.499,0.828-0.907,1.313-1.275
			c0.908-0.689,1.986-0.803,3.094-0.8c3.426,0.01,6.852-0.003,10.276,0.011c0.458,0.002,0.939,0.039,1.368,0.183
			c0.85,0.285,1.573,0.735,2.146,1.502c0.656,0.879,0.824,1.851,0.827,2.859c0.022,6.573,0.021,13.147,0.003,19.722
			c-0.003,1.092-0.298,2.125-0.992,3.003c-0.152,0.192-0.329,0.38-0.532,0.513c-0.09,0.06-0.336,0.031-0.403-0.049
			c-0.819-0.97-1.622-1.955-2.425-2.939c-0.605-0.743-1.194-1.501-1.815-2.231c-0.259-0.304-0.573-0.466-1.039-0.458
			C139.315,129.938,137.012,129.917,134.588,129.917z"/>
	</g>
</g>
</svg>
